<?xml version="1.0" encoding="utf-8"?>
<!-- Generator: Adobe Illustrator 27.8.1, SVG Export Plug-In . SVG Version: 6.00 Build 0)  -->
<svg version="1.1" id="Layer_1" xmlns="http://www.w3.org/2000/svg" xmlns:xlink="http://www.w3.org/1999/xlink" x="0px" y="0px"
	 viewBox="0 0 81.9 81.8" style="enable-background:new 0 0 81.9 81.8;" xml:space="preserve">
<style type="text/css">
	.st0{fill:#FFFFDD;}
</style>
<path class="st0" d="M69.8,12c-8-8-17.7-12-28.9-12C29.5,0,20,4,12,12S0,29.7,0,40.9c0,11.3,4,20.9,12,28.9
	c7.7,7.7,16.9,11.7,27.5,12c0.2,0,0.4,0,0.7,0c0.2,0,0.4,0,0.8,0c11.3,0,20.9-4,28.9-12c8-8,12-17.7,12-28.9
	C81.8,29.5,77.8,19.9,69.8,12z M69.2,69.2C61.3,77.1,51.9,81,40.8,81c-0.2,0-0.4,0-0.7,0c-0.2,0-0.4,0-0.6,0
	C29,80.6,20,76.8,12.4,69.2C4.6,61.3,0.7,51.9,0.7,40.8s3.9-20.6,11.8-28.4S29.8,0.6,40.9,0.6s20.6,3.9,28.4,11.8
	s11.8,17.3,11.8,28.4C81,52,77.1,61.4,69.2,69.2z M68.9,12.8C61.1,5,51.8,1.1,40.9,1.2c-11,0-20.3,3.9-28,11.6
	c-7.8,7.8-11.6,17.1-11.6,28c0,11,3.9,20.3,11.6,28c7.4,7.4,16.3,11.3,26.8,11.6c0.2,0,0.4,0,0.6,0c0.2,0,0.4,0,0.7,0
	c11,0,20.3-3.9,28-11.7c7.8-7.8,11.7-17.1,11.7-28C80.5,29.9,76.6,20.6,68.9,12.8z M68.6,68.6c-7.7,7.7-17,11.6-27.8,11.6
	c-0.2,0-0.4,0-0.7,0c-0.2,0-0.4,0-0.6,0c-10.3-0.3-19.1-4.1-26.5-11.6C5.4,61,1.6,51.7,1.6,40.9c0-10.9,3.9-20.1,11.6-27.8
	s17-11.6,27.8-11.6c10.9,0,20.1,3.9,27.8,11.6s11.6,17,11.6,27.8C80.2,51.8,76.3,61,68.6,68.6z M63.9,17.8
	c-6.3-6.3-14.1-9.6-23.1-9.6s-16.7,3.2-23.1,9.6c-6.3,6.3-9.6,14.1-9.6,23.1c0,9,3.2,16.7,9.6,23.1c6.1,6.1,13.4,9.3,22,9.6
	c0.1,0,0.3,0,0.4,0c0.2,0,0.3,0,0.6,0c9,0,16.7-3.2,23.1-9.6c6.3-6.3,9.6-14.1,9.6-23.1C73.4,31.9,70.3,24.2,63.9,17.8z M63.8,63.8
	c-6.3,6.3-14,9.4-22.9,9.4c-0.2,0-0.3,0-0.6,0c-0.1,0-0.3,0-0.4,0c-8.4-0.2-15.8-3.4-21.8-9.4c-6.3-6.3-9.4-14-9.4-22.9
	s3.1-16.6,9.4-22.9c6.3-6.3,14-9.4,22.9-9.4s16.6,3.1,22.9,9.4c6.3,6.3,9.4,14,9.4,22.9C73.2,49.8,70.1,57.4,63.8,63.8z M42,14.8
	l0.9-1.2l-1.6,0.2l-0.6-1.4l-0.6,1.6l-1.4-0.2l1,1.2l-1,1.2l1.6-0.2l0.6,1.4l0.6-1.4l1.4,0.2L42,14.8z M41.3,15.6l-0.4,1.1l-0.4-1.1
	l-1.2,0.2l0.8-1l-0.8-1l1.1,0.2l0.4-1.2l0.4,1.1l1.2-0.2l-0.8,1l0.8,1L41.3,15.6z M17.7,50.9l0.4-1.4l-1.3,0.8l-1-1.2v1.7L14.3,51
	l1.3,0.8l-0.4,1.4l1.3-0.8l1,1.2v-1.6l1.4-0.3L17.7,50.9z M17.3,51.9v1.2l-0.8-0.9l-1.1,0.7l0.3-1.1l-1.1-0.7l1.1-0.2v-1.2l0.8,0.9
	l1-0.6l-0.3,1.1l1,0.7L17.3,51.9z M67.6,50.9l-1.4-0.3V49l-1,1.2l-1.3-0.8l0.4,1.6L63,51.8l1.6,0.3v1.6l1.1-1.2l1.2,0.8l-0.4-1.6
	L67.6,50.9z M66.4,52.9l-1-0.7l-0.9,0.9v-1.2l-1.2-0.3l1-0.6L64,49.8l1.1,0.6l0.8-0.9l0.1,1.2l1.1,0.2l-1,0.7L66.4,52.9z M50.8,7.6
	c0.1-0.1,0.1-0.1,0.2-0.1 M54,9.6c-0.1-0.1-0.2-0.1-0.2-0.1c-0.1-0.1-0.1-0.2-0.2-0.3c-0.1-0.7-0.2-1.6-0.2-2.8
	c-0.1-1.2-0.2-1.8-0.2-1.9C53,4.3,53,4.3,52.8,4.3c-0.1,0-0.2,0-0.2,0.1c0,0.1-0.6,0.7-1.4,1.8c-0.4,0.6-0.9,1.1-1.3,1.7
	c-0.2,0.1-0.4,0.2-0.7,0.2c-0.1,0.1-0.1,0.2,0,0.3c0.2,0.1,0.4,0.2,0.7,0.2l0,0h0.1c0.2,0,0.4,0.1,0.7,0.1c0.1,0,0.1-0.1,0.1-0.1
	c0-0.1,0-0.2-0.2-0.2l0,0c-0.1,0-0.1-0.1-0.1-0.1s0-0.1,0-0.2l0,0c0-0.1,0.1-0.3,0.3-0.6l0.2-0.1c0.4,0.1,1,0.2,1.7,0.6
	c0.1,0.3,0.1,0.6,0,0.9C52.5,9,52.4,9,52.4,9c-0.1,0-0.2,0-0.3,0c-0.2,0-0.2,0.1,0,0.3c0.6,0.2,1.1,0.4,1.7,0.6c0.1,0,0.2,0,0.2-0.1
	C54.1,9.8,54.1,9.7,54,9.6z M51.2,7l1.2-1.4h0.1l0.1,1.9L51.2,7z M46.9,2.9c0.1,0,0.1,0,0.2,0c0,0,0.1,0.1,0.1,0.2
	c0.1,0.4,0.1,0.8,0,1.1c-0.1,0.1-0.1,0.1-0.3,0.1c-0.1-0.1-0.1-0.2-0.2-0.4c0-0.2-0.1-0.3-0.2-0.3c-0.2-0.1-0.4-0.2-0.7-0.2
	c-0.1,0-0.2,0.1-0.2,0.2c-0.1,0.4-0.1,1-0.2,1.4c0,0.2,0,0.3-0.1,0.6c-0.1,0.6-0.1,1.1-0.2,1.7l0.3,0.2l0.1,0.1c0,0,0,0.1-0.1,0.1
	c-0.2,0.1-0.4,0.1-0.8,0.1c-0.3,0-0.7-0.1-0.9-0.2c-0.1-0.1-0.1-0.2,0-0.3L44,7.1c0.1,0,0.1-0.1,0.1-0.2l0.4-3.6
	c0-0.1-0.1-0.2-0.2-0.2c-0.2,0-0.3-0.1-0.6,0c-0.2,0-0.4,0.2-0.6,0.6c-0.2,0.2-0.3,0.2-0.4,0.1c0-0.3,0.1-0.7,0.2-1.1
	c0-0.1,0.1-0.1,0.1-0.1h0.1c0.9,0.1,1.4,0.2,1.7,0.2C45.8,2.8,46.3,2.9,46.9,2.9 M49.5,4c-0.1,0-0.1,0.1-0.1,0.1
	c-0.2,1-0.6,2.2-0.8,3.6c0,0.1,0,0.1,0,0.1s0,0.1,0.1,0.1C49,8,49,8.1,49,8.2s-0.1,0.1-0.3,0.2c-0.4,0-1-0.2-1.4-0.3
	c0-0.1-0.1-0.1-0.1-0.2c0-0.1,0.1-0.1,0.1-0.1l0.2-0.1c0.1,0,0.1-0.1,0.1-0.1c0.3-1.1,0.6-2.3,0.8-3.6c0-0.1,0-0.1-0.1-0.2L48,3.6
	c-0.1-0.1-0.1-0.2,0.1-0.3c0.6,0,1,0.1,1.4,0.3c0.1,0.1,0.1,0.1,0.1,0.2c0,0.1,0,0.1-0.1,0.1C49.7,3.9,49.7,4,49.5,4 M40.8,3.1
	c0-0.1,0-0.1-0.1-0.2l-0.2-0.1c-0.1-0.1-0.1-0.2,0.1-0.3c0.6,0,1,0,1.6,0c0.1,0,0.1,0.1,0.2,0.2c0,0.1,0,0.1-0.1,0.2
	c-0.1,0-0.1,0.1-0.2,0.2c-0.1,0-0.1,0.1-0.1,0.2c-0.1,1-0.1,2.2-0.1,3.6c0,0.1,0,0.1,0,0.1s0,0.1,0.1,0.1c0.2,0,0.3,0.1,0.3,0.2
	c0,0.1-0.1,0.2-0.2,0.2c-0.4,0-1,0-1.6-0.1c-0.1,0-0.1-0.1-0.1-0.2c0-0.1,0-0.1,0.1-0.2l0.2-0.1c0,0,0.1-0.1,0.1-0.2
	C40.9,5.6,40.9,4.3,40.8,3.1 M38.9,3.1C38.7,3,38.4,3,38.2,3c-0.1,0-0.2,0.1-0.1,0.3c0,1.2,0.1,2.4,0.3,3.7l0.3,0.2l0.1,0.1v0.1
	c-0.2,0.1-0.4,0.2-0.8,0.2c-0.3,0-0.7,0-0.9,0c-0.1-0.1-0.2-0.2-0.1-0.3l0.3-0.2c0,0,0.1-0.1,0.1-0.2l-0.2-3.6
	c0-0.1-0.1-0.2-0.2-0.2c-0.2,0-0.3,0-0.6,0c-0.2,0.1-0.4,0.3-0.4,0.7C36,4,35.8,4.1,35.7,3.9c-0.1-0.3-0.1-0.7,0-1.1
	c0-0.1,0-0.1,0.1-0.1h0.1c0.9,0,1.4,0,1.7-0.1c0.7,0,1.2-0.1,1.7-0.1c0.1,0,0.1,0,0.2,0l0.1,0.1c0.1,0.4,0.2,0.8,0.2,1.1
	c0,0.1-0.1,0.1-0.2,0.1c-0.1-0.1-0.2-0.2-0.3-0.4C39,3.2,39,3.1,38.9,3.1 M33.4,3.2c0.1-0.2,0.3-0.2,0.4,0c0.1,0.1,0.3,0.4,0.4,0.9
	c0,0.1,0,0.2-0.1,0.2c-0.1,0-0.2,0-0.4-0.2c-0.2-0.2-0.4-0.3-0.6-0.3c-0.7-0.1-1,0.1-1.2,0.6c-0.1,0.6,0.2,0.9,1,1l1,0.2
	c0.4,0.1,0.8,0.3,1,0.8s0.1,0.9-0.1,1.2c-0.1,0.2-0.3,0.4-0.8,0.7c-0.4,0.2-1,0.3-1.7,0.2c-0.3,0-0.6-0.1-0.7-0.2
	c-0.1-0.1-0.2-0.3-0.2-0.4V7.7c0-0.1-0.1-0.3-0.1-0.4C31.5,7,31.7,7,31.8,7.1l0.4,0.4c0.2,0.2,0.4,0.3,0.7,0.3c0.4,0.1,0.8,0,1-0.2
	c0.2-0.3,0.3-0.6,0.2-0.8c-0.1-0.1-0.2-0.2-0.3-0.3c-0.1-0.1-0.3-0.2-0.4-0.2L32,6c-0.3-0.1-0.6-0.2-0.8-0.4
	c-0.3-0.4-0.3-0.9-0.1-1.3c0.2-0.6,0.8-0.9,1.4-1C33.1,3.3,33.3,3.3,33.4,3.2 M25.2,6.1c-0.1-0.1-0.1-0.2,0-0.2
	c0.6-0.3,1-0.4,1.4-0.7c0.2,0,0.3,0.1,0.2,0.2c-0.2,0.1-0.3,0.2-0.2,0.4c0.2,0.7,0.3,1.2,0.7,1.8v0.1c0.2,0.4,0.3,0.8,0.6,1.1
	C28,9,28.1,9.1,28.3,9.2c0.3,0.1,0.7,0.1,0.9,0c0.3-0.1,0.6-0.3,0.8-0.6c0.1-0.3,0.1-0.6,0-0.9c0,0,0,0,0-0.1l0,0
	c-0.3-0.9-0.7-1.8-1-2.7c0-0.1-0.1-0.1-0.1-0.1c-0.1,0-0.2,0-0.3,0s-0.1-0.1-0.1-0.1s0-0.1,0-0.2c0.3-0.2,0.7-0.4,1.2-0.4
	c0.1,0,0.2,0.1,0.2,0.1c0,0.1,0,0.1,0,0.1s-0.1,0.1-0.2,0.1c-0.1,0.1-0.1,0.2-0.1,0.3l1,2.6c0,0.1,0.1,0.2,0.1,0.3v0.1
	c0,0.2,0,0.4,0,0.6c0,0.2-0.1,0.3-0.1,0.4c0,0.1-0.1,0.2-0.3,0.3c-0.2,0.2-0.3,0.3-0.6,0.4c-0.2,0.1-0.4,0.2-0.7,0.2
	c-0.4,0.1-0.8,0.1-1.1,0c-0.4-0.2-0.8-0.4-0.9-0.9l-1.1-2.7c0-0.1-0.1-0.1-0.2-0.1C25.4,6.1,25.3,6.1,25.2,6.1 M25,11
	c0-0.1,0-0.1,0-0.2c-0.4-1.1-1-2.2-1.7-3.2l-0.1-0.1h-0.3c-0.2,0-0.2-0.1-0.1-0.3c0.4-0.3,0.9-0.6,1.3-0.8c0.1,0,0.2,0,0.2,0.1
	c0,0,0,0.1,0,0.2c0,0.1-0.1,0.1-0.1,0.2c0,0.1,0,0.1,0,0.2c0.4,1,1,2,1.7,3.2c0,0.1,0.1,0.1,0.1,0.1h0.1c0.2,0,0.3,0,0.3,0.1
	s0,0.2-0.1,0.3c-0.4,0.3-0.9,0.6-1.3,0.7c-0.1,0-0.1,0-0.1-0.1s0-0.1,0-0.2L25,11 M26.5,19.9c0.1-0.2,0.2-0.4,0.2-0.7
	c0.1,0.2,0.1,0.6,0,1.1c0,0.1,0,0.2,0,0.4s0.1,0.4,0.1,0.7c0,0.2,0,0.6,0,1v0.1l0.1,0.1c0.1,0.1,0,0.1-0.1,0.2
	c-0.2-0.1-0.2-0.3-0.3-0.6c0,0,0-0.1,0-0.2c0-0.1,0-0.2,0-0.2c-0.1-0.2-0.2-0.4-0.4-0.6c0-0.1,0-0.2,0-0.3c0-0.2,0-0.3,0.1-0.4
	c0-0.1,0.1-0.2,0.1-0.3C26.3,20.1,26.4,20,26.5,19.9 M25.1,21.7c0.1-0.2,0.2-0.3,0.2-0.6c0-0.3,0-0.6-0.1-0.8
	c0.3,0.4,0.6,0.9,0.4,1.2c-0.1,0.2,0,0.4,0.1,0.7c0.2,0.1,0.3,0.2,0.3,0.3c0.1,0.1,0.1,0.2,0.1,0.4v0.4c-0.1,0-0.1-0.1-0.2-0.1
	c0,0,0-0.1,0-0.2c0-0.1,0-0.2-0.1-0.2c-0.1,0-0.1,0-0.2,0c-0.1,0.1-0.1,0.1-0.2,0.2c0,0.1,0,0.2,0.1,0.3l0.2,0.2
	c0,0.3,0,0.4-0.1,0.4c-0.1-0.2-0.3-0.4-0.4-0.8c0-0.1,0-0.3,0-0.4c0-0.1,0-0.2,0-0.2s-0.1-0.1-0.1-0.2c-0.1-0.1-0.1-0.2-0.2-0.3
	C25,21.8,25.1,21.7,25.1,21.7 M27.7,21.2c-0.1-0.3-0.1-0.7,0-1c0.1-0.4,0.2-0.7,0.3-0.8c-0.2,0.6-0.1,1.2,0.2,1.8
	c0.1,0.1,0.1,0.2,0.1,0.4c0,0.1,0,0.2-0.1,0.3c-0.3,0.3-0.4,0.7-0.4,1.2c-0.1-0.1-0.2-0.2-0.2-0.2s0-0.2,0.1-0.3l0.1-0.2
	c0-0.1,0-0.3,0-0.4C27.8,21.7,27.7,21.4,27.7,21.2 M29,21.2c0,0.1,0,0.1-0.1,0.3c0,0.2,0,0.3,0.1,0.4c0.2,0.2,0,0.7-0.4,1.2
	c-0.1,0-0.1-0.1,0-0.2c0.2-0.1,0.2-0.3,0.2-0.6c-0.1-0.2-0.1-0.6,0-0.8c0,0,0.1-0.1,0.1-0.3C29,21.2,29,21.1,29,21
	C29,21,29,21.1,29,21.2 M28.1,24.5L28.1,24.5c0.1,0.2,0.1,0.3,0,0.4l0,0c0,0.1,0,0.2,0,0.3s0.2,0.3,0.4,0.4
	c-0.1,0.1-0.2,0.1-0.3,0.1c0,0-0.1,0-0.2,0c-0.1-0.2-0.1-0.4-0.1-0.6s0-0.2,0.1-0.3c0.1-0.1,0.1-0.2,0.1-0.2
	C28.1,24.7,28.1,24.5,28.1,24.5L28,24.4C28,24.4,28.1,24.4,28.1,24.5 M26.3,24.3C26.3,24.4,26.3,24.4,26.3,24.3c0,0.1,0,0.2,0,0.2
	s0,0.1,0.1,0.1c0,0.1,0.1,0.1,0.1,0.2c0.1,0.2,0.1,0.6,0,1c-0.1,0-0.1,0-0.2-0.1c-0.1,0-0.1-0.1-0.2-0.1c0-0.1,0-0.1,0-0.2
	c0-0.1,0-0.1,0.1-0.2c0-0.1,0-0.1,0-0.3c0-0.1-0.1-0.2-0.1-0.2C26.1,24.5,26.1,24.4,26.3,24.3c0-0.1,0.1-0.2,0.1-0.2
	C26.3,24.2,26.3,24.3,26.3,24.3 M27.3,23.8c0-0.1-0.1-0.2-0.1-0.3c-0.1-0.3-0.1-0.6,0.1-0.8c-0.1,0.3,0,0.7,0.2,1.1
	c0.1,0.1,0.1,0.2,0.1,0.3c0,0.1,0,0.1-0.1,0.2c0,0-0.1,0.1-0.1,0.2v0.1l0,0c0,0.1,0,0.1,0,0.1c0-0.1,0-0.1-0.1-0.2
	c0-0.1-0.1-0.1-0.1-0.1c0-0.1,0-0.2,0-0.4C27.3,24,27.3,23.9,27.3,23.8 M27.1,25c0-0.1,0-0.1,0.1-0.1C27.2,24.9,27.2,25,27.1,25
	C27.2,25,27.2,25.1,27.1,25c0,0.1,0,0.2,0,0.2c0,0.2,0.1,0.4,0.3,0.8c-0.2,0-0.3,0-0.6,0c-0.1-0.2-0.1-0.4,0-0.7
	C27,25.2,27.1,25.1,27.1,25L27.1,25 M63.2,19v2.7 M62.3,46.5L62.3,46.5 M50.2,54.1v-0.3 M27.9,50c0-0.1,0-0.2,0-0.3h-2.6
	c0,0.1,0,0.2,0,0.3c0,0.1,0,0.3,0,0.3h0.2c0-0.1,0-0.2,0.1-0.3c0.1-0.1,0.1-0.1,0.2-0.1H26c0.1,0,0.1,0,0.2,0v2.4
	c0,0.2-0.2,0.3-0.4,0.4v0.1H27c0,0,0-0.1,0-0.2c0-0.1,0-0.1,0-0.2c-0.1,0-0.2-0.1-0.3-0.2v-2.3c0.2,0,0.4,0,0.6,0
	c0.1,0,0.2,0.1,0.2,0.3h0.2C28,50.3,28,50.2,27.9,50z M25.7,46.4l0.8,2.7l0.4,0.1l0.1-0.1l-0.2-0.2l1-2.4c0.1-0.1,0.3-0.2,0.6-0.3
	V46h-1l0.1,0.2l-0.8,1.9l-0.6-2h-0.9v0.2C25.5,46.2,25.7,46.3,25.7,46.4z M43.7,62.8c-0.1,0-0.2-0.1-0.4-0.1c-0.2,0-0.4-0.1-0.6-0.1
	c-0.1-0.1-0.2-0.2-0.2-0.3c0-0.1,0-0.2,0.1-0.3c0.1-0.1,0.2-0.2,0.3-0.2c0.1,0,0.3,0,0.4,0.2l-0.1,0.2h0.4l0.2-0.8h-0.4l-0.1,0.1
	c-0.3-0.1-0.6-0.1-0.8-0.1c-0.2,0-0.3,0.1-0.6,0.2c-0.1,0.2-0.2,0.3-0.2,0.7c0,0.2,0.2,0.4,0.7,0.6c0.3,0.1,0.7,0.3,0.8,0.6
	c0.1,0.2,0.1,0.3,0,0.6c-0.3,0.2-0.7,0.1-0.9,0v-0.2l-0.2-0.2l-0.4,0.9l0.7,0.1v-0.1c0.9,0.2,1.4,0,1.6-0.4c0.1-0.3,0.1-0.6,0-0.8
	C43.9,62.9,43.8,62.8,43.7,62.8z M41.7,60.2c0,0.1,0.1,0.3,0.2,0.4c0.1,0.1,0.2,0.2,0.4,0.2s0.3,0,0.4,0c0.2-0.1,0.4-0.1,0.7-0.3
	l0.1-0.1l0,0v0.3h0.3v-1.3l-0.6,0.1c0,0.1,0,0.1,0,0.2c0,0.1-0.1,0.2-0.1,0.2s0,0,0.1,0l0,0l0,0c0,0.1-0.1,0.3-0.2,0.3
	c-0.1,0-0.2,0.1-0.3,0c-0.1,0-0.2-0.1-0.3-0.2c-0.1-0.1-0.2-0.3-0.2-0.6s0.1-0.3,0.3-0.3c0.1,0,0.4,0,0.7,0.1l-0.1-0.6
	c0,0.1-0.1,0.1-0.2,0.2c-0.2,0-0.3,0-0.4,0c-0.2-0.1-0.3-0.3-0.2-0.6c0.1-0.3,0.3-0.6,0.4-0.6c0.1,0,0.2,0,0.3,0.1
	c0.1,0.1,0.1,0.2,0.2,0.3H43c0,0,0,0.1,0,0.2s0.1,0.2,0.1,0.2l0.4,0.1l0.1-1.2h-0.2l-0.2,0.2c-0.3-0.3-0.7-0.4-1.1-0.3
	c-0.2,0-0.3,0.1-0.4,0.2c-0.1,0.1-0.2,0.2-0.2,0.4v0.4c0,0.1,0.1,0.2,0.2,0.4C41.7,59.4,41.5,59.8,41.7,60.2z M15.1,33.1
	c-0.6-1.6-0.9-2.9-1.2-4c-0.3-1.4-0.7-2.7-0.9-3.9c-0.9,1.6-1.6,3.1-2.1,4.4c-0.7,1.8-1.1,3.4-1.3,5.1c-0.3,2-0.4,3.9-0.6,5.6
	c0,2.1,0.1,4.2,0.6,6.2c0.2-2.4,0.8-4.9,1.7-7.1C12.1,37.4,13.4,35.2,15.1,33.1z M12.7,27.3c0.3,1.7,0.9,3.6,1.7,5.8
	c-1.9,2-3.4,5-4.7,8.9C9.4,36.8,10.4,31.9,12.7,27.3z M30.5,52.3c-0.2-0.6-0.3-1.2-0.4-2c0-0.3,0.1-0.4,0.4-0.4l0.1-0.3l-2.6,0.1
	c0,0.1,0,0.2,0.1,0.2c0,0,0.1,0.1,0.2,0c0.1,0,0.1,0,0.2,0.1c0,0.1,0,0.1,0,0.2l-0.6,2c0,0.2-0.1,0.3-0.3,0.4l0.1,0.1h0.8l0.2-0.9
	c0.1-0.4,0.4-0.6,1-0.4l0.4,1.4l0.6-0.1l0.1-0.2C30.8,52.7,30.7,52.5,30.5,52.3z M29.9,51c0,0.1,0,0.2-0.1,0.2c-0.1,0-0.2,0-0.4,0
	c-0.1,0-0.1-0.1-0.1-0.1c0-0.3,0-0.6,0.1-0.9c0.2-0.1,0.3-0.1,0.4,0.1C29.9,50.5,29.9,50.8,29.9,51z M28.3,47.1
	c0,0.1,0.1,0.2,0.2,0.4c-0.3,0.3-0.3,0.7-0.3,1.1c0,0.1,0.1,0.3,0.2,0.4c0.1,0.1,0.2,0.2,0.4,0.2c0.2,0,0.3,0,0.4,0
	c0.2-0.1,0.4-0.1,0.7-0.3l0.1-0.1l0,0v0.3h0.3v-1.3L29.9,48c0,0.1,0,0.1,0,0.2c0,0.1-0.1,0.2-0.1,0.2s0,0,0.1,0l0,0l0,0
	c0,0.1-0.1,0.3-0.2,0.3c-0.1,0-0.2,0.1-0.3,0c-0.1,0-0.2-0.1-0.3-0.2c-0.1-0.1-0.2-0.3-0.2-0.6s0.1-0.3,0.3-0.3c0.2,0,0.4,0,0.7,0.1
	l-0.1-0.6c0,0.1-0.1,0.1-0.2,0.2c-0.2,0-0.3,0-0.4,0c-0.2-0.1-0.3-0.3-0.2-0.6c0.1-0.3,0.3-0.6,0.4-0.6c0.1,0,0.2,0,0.3,0.1
	s0.1,0.2,0.2,0.3h-0.2c0,0,0,0.1,0,0.2c0,0.1,0.1,0.2,0.1,0.2l0.4,0.1l0.1-1.2H30l-0.2,0.2c-0.3-0.3-0.7-0.4-1.1-0.3
	c-0.2,0-0.3,0.1-0.4,0.2c-0.1,0.1-0.2,0.2-0.2,0.4L28.3,47.1z M45.9,62.4L45.7,62l-0.2,0.4H45l0.2,0.4L45,63.2h0.4l0.2,0.4l0.2-0.4
	h0.4l-0.2-0.4l0.2-0.4h-0.4V62.4z M37.7,62c0-0.1,0-0.2,0-0.3c0-0.1,0-0.2,0-0.3H35c0,0.1,0,0.2,0,0.3c0,0.1,0,0.3,0,0.3h0.2
	c0-0.1,0-0.2,0.1-0.3c0.1-0.1,0.1-0.1,0.2-0.1h0.1c0.1,0,0.1,0,0.2,0V64c0,0.2-0.2,0.3-0.4,0.4v0.1h1.2c0,0,0-0.1,0-0.2s0-0.1,0-0.2
	c-0.1,0-0.2-0.1-0.3-0.2v-2.3c0.2,0,0.4,0,0.6,0c0.1,0,0.2,0.1,0.2,0.3L37.7,62z M49.8,52.3c-0.2-0.6-0.3-1.2-0.4-2
	c0-0.3,0.1-0.4,0.4-0.4l0.1-0.3l-2.3,0.1v0.1v0.1c0,0,0.1,0.1,0.2,0c0.1,0,0.1,0,0.1,0.1c0,0.1,0,0.1,0,0.2l-0.4,2v0.1h-0.1
	c-0.1,0-0.1-0.1-0.1-0.1v-2c0-0.2,0.1-0.3,0.2-0.3v-0.2h-1v0.2c0.1,0,0.2,0.1,0.2,0.2v2.1c0,0.2-0.1,0.3-0.3,0.3l0.2,0.2l0.7-0.1
	l0.1,0.1h0.8l0.2-0.9c0.1-0.4,0.3-0.6,0.9-0.4l0.4,1.4l0.6-0.1l0.1-0.2C50,52.7,49.9,52.5,49.8,52.3z M49.1,51c0,0.1,0,0.2-0.1,0.2
	c-0.1,0-0.2,0-0.4,0c-0.1,0-0.1-0.1-0.1-0.1c0-0.3,0-0.6,0.1-0.9c0.2-0.1,0.3-0.1,0.4,0.1C49.1,50.5,49.2,50.8,49.1,51z M69.3,37.9
	c-0.9-1.8-1.9-3.3-3.2-4.7c1.2-2.9,2-5.8,2.3-8.7c-1-0.6-2-1-3-1.2c-1-0.2-1.8-0.4-2.2-0.6v-0.3c1.7,0.3,3.2,0.8,4.4,1.3
	c-1.2-2.1-2.7-4-4.4-5.7c-0.9-0.9-1.8-1.7-2.8-2.4c-3.1-2.4-6.6-4.2-10.6-5.4c3.4,1.9,6.3,4.6,8.7,7.9h-0.9
	c-0.1-0.1-0.1-0.2-0.2-0.3c-0.1-0.2-0.2-0.3-0.3-0.4c-0.1-0.2-0.2-0.3-0.3-0.6c-0.1-0.1-0.2-0.3-0.4-0.6c-0.1-0.2-0.3-0.3-0.6-0.6
	s-0.4-0.4-0.7-0.7c-0.3-0.3-0.6-0.6-0.9-0.9c-1.3-1.2-2.8-2.2-4.4-3.1c-1.4-0.8-2.9-1.3-4.6-1.7C44.4,9.2,43.8,9,43.1,9
	c-0.7-0.1-1.4-0.1-2.2-0.1c-0.9,0-1.8,0.1-2.7,0.2c-0.9,0.1-1.8,0.2-2.4,0.4c-1.6,0.3-3,1-4.4,1.8c-3.2,1.8-5.7,4.1-7.3,6.9h-1
	c2.3-3.3,5.1-6,8.7-7.9c-3.9,1.2-7.4,3.1-10.6,5.4c-3,2.3-5.4,5-7.3,8.1c1.3-0.6,2.8-1,4.6-1.3v0.3c-0.4,0.1-1.1,0.2-2.1,0.6
	c-1,0.2-2,0.7-3,1.2c0.3,2.9,1.2,5.8,2.3,8.7c-1.3,1.3-2.4,2.9-3.2,4.7c-0.8,1.7-1.4,3.4-1.8,5.2c-0.3,1.8-0.4,3.7-0.3,5.7
	c0.2,1.9,0.7,3.8,1.3,5.7c0.8,1.9,1.7,3.6,2.8,5.1c1.1,1.6,2.6,2.9,4.2,4c1.7,1.1,3.6,2,5.8,2.7c2.1,0.7,4.4,0.9,7,0.9
	c0.1,0.1,0.3,0.2,0.4,0.3h-0.1c-4.1,0.4-8.1-0.3-11.8-2.2c5.7,4.7,12.2,7.2,19.6,7.6c-1.2-0.7-2.4-1.8-3.8-3.4
	c0.3,0.1,0.7,0.2,1,0.3l0,0c0.9,1.2,2.1,2.3,3.7,3.2c0.1,0,0.1,0.1,0.2,0.1c0.1,0,0.1-0.1,0.2-0.1c1.4-0.8,2.7-1.9,3.7-3.2
	c0.3-0.1,0.7-0.2,1-0.3c-1.4,1.7-2.7,2.9-3.8,3.4c7.3-0.3,13.9-2.9,19.6-7.7c-3.9,2.1-7.8,2.9-11.8,2.3c0.1-0.1,0.2-0.2,0.4-0.2
	c2.6,0.1,4.9-0.2,7.1-0.9c2.1-0.7,4.1-1.6,5.8-2.7s3.1-2.4,4.2-4c1.1-1.6,2.1-3.2,2.8-5.1c0.8-1.9,1.2-3.8,1.3-5.7
	c0.2-1.9,0.1-3.8-0.3-5.7C70.8,41.2,70.2,39.5,69.3,37.9z M65.3,33l-1.4,0.1c0.9-2.3,1.7-4.6,2.2-7l1.3-0.8
	C67.1,27.9,66.3,30.4,65.3,33z M63.2,32.8v-7.2c0.8,0.1,1.6,0.3,2.1,0.7C65.1,28,64.3,30.2,63.2,32.8z M67.4,24.8L66,25.7
	c-0.9-0.3-1.8-0.7-2.8-0.9v-1.3C65,23.9,66.3,24.3,67.4,24.8z M66,22.2c-1.1-0.3-2-0.6-2.8-0.7v-2.7C64.4,20.2,65.3,21.3,66,22.2z
	 M62.9,48.7c0-0.1,0-0.1,0-0.2c0.2-1.3,0.3-2.7,0.3-4V34.1c1.3,1.1,2.6,2.7,3.6,4.7c1,2,1.6,3.8,1.8,5.6c0.2,1.7,0.2,3.3,0,5.1
	c-0.2,1.7-0.7,3.2-1.3,4.8c-0.7,1.4-1.6,2.9-2.8,4.3c-1.2,1.4-2.7,2.6-4.2,3.6c-1.6,0.9-2.9,1.4-3.9,1.8c-1,0.3-2,0.4-2.9,0.6
	c1-0.9,1.9-1.8,2.8-2.8c2.2-2.4,3.9-5.2,5.1-8.2c0.3-0.9,0.7-1.9,1-2.9C62.7,49.8,62.8,49.2,62.9,48.7z M41.1,65.2
	c0.1-0.1,0.3-0.1,0.6-0.2c0.2,0,0.4,0,0.7,0c0.6,0,1,0.1,1.4,0.2c0.4,0.1,1,0.2,1.7,0.2c0.6,0.1,1,0.1,1.4,0.1
	c0.3,0,0.4-0.1,0.6-0.2s0.1-0.2,0.1-0.4c0-1.6,0-2.9,0-4.1c0-0.8,0-1.6,0-2.4c0-1,0-1.6,0-1.8c0.2,0.1,0.4,0.2,0.6,0.4
	c0.1,0.1,0.2,0.3,0.3,0.4c0,1.1,0,2.3,0,3.7c0,1.6-0.1,3.1-0.1,4.6c0,0.4-0.2,0.6-0.7,0.6c-0.4,0-1-0.1-1.6-0.2
	c-0.7-0.1-1.2-0.2-1.7-0.3c-0.4-0.1-0.7-0.1-0.9-0.1c-0.9-0.2-1.4-0.2-1.4-0.3c-0.3,0-0.7,0-0.9,0.2v-0.2H41.1z M41.1,57
	c0,0,0.1,0,0.3-0.1s0.4-0.1,0.6-0.1c0.2,0,0.4-0.1,0.7-0.1c0.1,0,0.2,0,0.3,0c0.2,0,0.3,0,0.6,0c0.8,0.1,1.3,0.2,1.8,0.2
	c0.3,0,1-0.1,2-0.2c0,1.2,0,2.9,0,5.2c0,2.1,0,3.1-0.1,3.1c0,0,0,0.1,0,0.2c0,0.1-0.1,0.1-0.2,0.1c-0.1,0-0.2,0-0.4,0
	c-1.1,0-2.1-0.1-3.2-0.3c-0.8-0.1-1.3-0.2-1.4-0.2c-0.3,0-0.6,0.1-0.8,0.2L41.1,57z M48.4,56.9c-0.1-0.2-0.3-0.3-0.4-0.4
	c-0.1,0-0.1-0.1-0.2-0.1c0,0-0.1,0-0.3,0l-0.7,0.1c-0.7,0.1-1,0.1-1.1,0.1c-0.1,0-0.3,0-0.7,0c-0.4,0-0.7,0-0.9-0.1
	c-0.2,0-0.4-0.1-0.4-0.1c-0.1,0-0.3,0-0.6,0c-0.2,0-0.6,0-0.8,0c-0.2,0-0.4,0.1-0.6,0.1c-0.1,0-0.2,0-0.3,0.1c-0.1,0-0.2,0-0.3,0.1
	c-0.1,0-0.2,0-0.2,0c-0.1,0-0.3-0.1-0.9-0.2c-0.4-0.1-0.8-0.1-1-0.1c-0.6,0-0.9,0-0.9,0c-0.3,0-0.7,0.1-1,0.1c-0.6,0.1-1,0.1-1.2,0
	c-0.2,0-0.4-0.1-0.7-0.1c-0.2,0-0.4-0.1-0.7-0.1c-0.2,0-0.4,0.1-0.6,0.2c-0.1,0.1-0.3,0.3-0.4,0.6c-0.1,0.2-0.2,0.4-0.3,0.6h-9.6
	l-1.1-1.9h37c-0.3,0.7-0.8,1.2-1.1,1.9H49C48.8,57.3,48.5,57.1,48.4,56.9z M33.3,65.5c0-0.2,0-0.4,0-0.7c0-2.1,0-4.6,0-7.3
	c0.1-0.4,0.4-0.8,0.9-0.9c0,0.9-0.1,2.3-0.1,4.2c0,1.7,0,3,0,4.2c0,0.2,0,0.3,0.1,0.4c0.1,0.1,0.3,0.1,0.7,0.1c0.3,0,0.9,0,1.6-0.1
	c0.3,0,0.9-0.1,1.7-0.2c0.6-0.1,1.1-0.1,1.3-0.2c0.4,0,0.9,0,1.2,0.1v0.3c-0.2-0.2-0.4-0.2-0.8-0.2c-0.3,0-0.9,0.1-1.7,0.3
	c-0.8,0.2-1.6,0.3-2.2,0.4c-0.7,0.1-1.3,0.2-1.9,0.1c-0.2,0-0.3,0-0.4,0c-0.1,0-0.2,0-0.2-0.1c-0.1-0.1-0.1-0.2-0.1-0.4
	C33.3,65.6,33.3,65.6,33.3,65.5z M34.3,65c0,0,0-0.1,0-0.2v-8.1c0.9,0.1,1.6,0.2,2,0.1c0.1,0,0.3-0.1,0.7-0.1c0.3-0.1,0.7-0.1,1-0.2
	c0.3,0,0.7,0,1.1,0c0.1,0,0.3,0.1,0.8,0.1c0.3,0.1,0.6,0.2,0.7,0.2v8c-0.2-0.1-0.4-0.1-0.8-0.1c-0.2,0-0.8,0-1.4,0.1
	c-0.7,0.1-1.3,0.1-1.9,0.2c-0.6,0.1-1,0.1-1.4,0.1C34.5,65.1,34.3,65.1,34.3,65C34.3,65.1,34.3,65.1,34.3,65z M32.3,64
	c0.1,0.1,0.2,0.1,0.3,0.1s0.1,0,0.2,0l0,0v0.4h-3.2l-2.1-1.9h5.3v0.6c0,0,0,0-0.1,0c-0.1,0-0.1,0-0.2,0c-0.1,0-0.2,0-0.3,0.1
	c-0.1,0.1-0.1,0.2-0.1,0.3C32.2,63.8,32.3,63.9,32.3,64z M32.3,59c0.1,0.1,0.2,0.1,0.3,0.1s0.1,0,0.2,0l0,0V60H25l-1.4-1.9h9.2v0.2
	l0,0l0,0c-0.1,0-0.1,0-0.2,0c-0.1,0-0.2,0-0.3,0.1c-0.1,0.1-0.1,0.2-0.1,0.3C32.2,58.8,32.3,58.9,32.3,59z M33,60.3v1.9h-5.8
	C27.1,62.1,27,62,27,62l-0.9-1l0,0c-0.2-0.2-0.3-0.4-0.6-0.7H33z M62.4,44.3l-0.1,1.8h-4c-0.1-0.2-0.2-0.6-0.4-0.8
	c-0.2-0.2-0.4-0.4-0.7-0.4c0,0-0.1,0-0.3,0c-1,0.1-1.7,0.2-1.8,0.2c-0.1,0-0.4,0-0.8,0c-0.3,0-0.8-0.1-1.1-0.2
	c-0.4-0.1-0.7-0.1-0.8-0.1c-0.4,0-0.8,0-1.1,0.2c-0.2,0.1-0.3,0.1-0.3,0.2c-0.1,0.1-0.2,0.1-0.4,0.1c-0.1,0-0.2,0-0.3,0
	c-0.1-0.1-0.2-0.1-0.3-0.2c-0.3-0.2-0.9-0.2-1.8,0c-0.8,0.1-1.4,0.2-1.8,0.2c-0.3,0-0.8-0.1-1.1-0.1c-1-0.2-1.6-0.2-1.7-0.1
	c-0.7,0.6-1,0.9-1.1,1.2h-3.2c0-0.2-0.1-0.3-0.2-0.6c0-0.1-0.1-0.2-0.2-0.2c-0.2-0.2-0.4-0.4-0.7-0.4c0,0-0.1,0-0.3,0
	c-1,0.1-1.7,0.2-1.8,0.2c-0.1,0-0.3,0-0.7,0c-0.4,0-0.9,0-1.2-0.1c-0.4-0.1-0.7-0.1-0.8-0.1c-0.4,0-0.8,0-1.1,0.2
	c-0.2,0.1-0.3,0.1-0.3,0.2c-0.1,0.1-0.2,0.1-0.4,0.1c-0.1,0-0.2,0-0.3,0c-0.1-0.1-0.2-0.1-0.3-0.2c-0.3-0.2-0.9-0.2-1.7-0.1
	c-0.8,0.1-1.4,0.2-1.9,0.2c-0.2,0-0.7,0-1-0.1c-1-0.2-1.6-0.2-1.7-0.1c-0.7,0.6-1,0.9-1,1.2h-4.1c0-0.4-0.1-0.8-0.1-0.9
	c0-0.3,0-0.7,0-0.8h43.1V44.3z M46.4,28.4c0-0.1,0-0.1,0.1-0.1c0,0.1,0,0.1,0.1,0.2L46.4,28.4z M47,27.4c-1.7,0-3-0.1-4.2-0.4
	c-0.7-0.1-1.2-0.4-1.8-0.8c-0.4-0.3-0.8-0.7-0.8-0.9c-0.1-0.3-0.1-0.4,0-0.6c0.1-0.1,0.2,0,0.4,0.2c0.7,0.8,1.7,1.1,2.8,1.3
	c1.7,0.2,2.9,0.4,3.6,0.9c0.1,0.1,0.2,0.1,0.2,0.2C47.2,27.4,47.1,27.4,47,27.4z M49.3,22.5c-0.1-0.1-0.1-0.1-0.2-0.1c0,0,0,0-0.1,0
	l0,0c0,0,0,0,0.1-0.1c0.2-0.1,0.4,0,0.6,0c0.1,0.1,0.2,0.2,0.4,0.4C50,22.9,49.8,23,49.5,23c-0.1,0-0.1,0-0.1-0.1
	C49.4,22.8,49.4,22.7,49.3,22.5z M58.7,51.9c-0.1-0.1-0.2-0.1-0.3-0.1c-0.1,0-0.1,0-0.2,0.1v-0.7h3.2c-0.2,0.7-0.4,1.3-0.7,1.9h-2.6
	v-0.4c0.1,0,0.1,0,0.2,0c0.1,0,0.2,0,0.3-0.1c0.1-0.1,0.1-0.2,0.1-0.3C58.9,52.1,58.8,52,58.7,51.9z M61.4,50.8h-3.3v-1.9h3.8
	 M58.2,48.4v-0.8c0.1,0,0.1,0,0.2,0c0.1,0,0.2,0,0.3-0.1s0.1-0.2,0.1-0.3c0-0.1,0-0.2-0.1-0.3s-0.2-0.1-0.3-0.1c-0.1,0-0.1,0-0.2,0
	v-0.2h4l-0.3,1.9L58.2,48.4L58.2,48.4z M50.5,53.8c0.3-0.2,0.8-0.3,1.2-0.2c0.6,0,1,0.1,1.4,0.2c0.4,0.1,1,0.2,1.7,0.2
	c0.7,0.1,1.1,0.1,1.4,0.1c0.3,0,0.6-0.1,0.6-0.1c0.1-0.1,0.1-0.2,0.1-0.4c0-1.6,0-2.9,0-4.1c0-0.8,0-1.6,0-2.4c0-1,0-1.6,0-1.8
	c0.2,0.1,0.4,0.2,0.6,0.4c0.1,0.1,0.2,0.3,0.3,0.4c0,1.3,0,2.6,0,3.7c0,1.7-0.1,3.1-0.1,4.6c0,0.3-0.2,0.4-0.6,0.4
	c-0.6,0-1.3,0-2.2-0.1c-0.3,0-0.7-0.1-1.1-0.2c-0.4-0.1-0.7-0.2-0.9-0.2c-0.9-0.2-1.4-0.2-1.4-0.3c-0.3,0-0.7,0-0.9,0.2v-0.3H50.5z
	 M50.5,53.5v-8c0,0,0.1,0,0.2-0.1c0.1-0.1,0.3-0.1,0.4-0.2c0.3-0.1,0.6-0.1,0.8-0.1s0.4,0,0.9,0.1c0.4,0.1,1.1,0.2,1.9,0.2
	c0.6,0,1.2,0,2-0.1c0.1,2.7,0.1,4.8,0,6.2c0,0.4,0,1-0.1,1.6c0,0.3,0,0.4,0,0.6c-0.1,0.1-0.1,0.2-0.3,0.2c-0.1,0-0.2,0.1-0.3,0.1
	l-3.1-0.3c-0.8-0.1-1.2-0.1-1.4-0.1C51.1,53.3,50.8,53.4,50.5,53.5z M42.9,53.4c0-2.1,0-4.6,0-7.3c0.2-0.4,0.6-0.7,0.9-0.9
	c0,0.9-0.1,2.3-0.1,4.2c0,1.7,0,3,0,4.2c0,0.2,0,0.3,0.1,0.4c0.1,0.1,0.2,0.1,0.3,0.1c0.7,0,1.2,0,2-0.1c0.3,0,0.9-0.1,1.7-0.2
	c0.6-0.1,1-0.1,1.3-0.2c0.4,0,0.9,0,1.2,0.1v0.3C50.2,54,49.9,54,49.4,54c-0.2,0-0.8,0.1-1.6,0.2c-0.8,0.1-1.6,0.3-2.3,0.4
	c-0.7,0.1-1.3,0.2-1.9,0.1c-0.6,0-0.8-0.2-0.8-0.6C42.9,54,42.9,53.8,42.9,53.4z M49.4,53.3c-0.2,0-0.8,0-1.4,0.1s-1.3,0.1-1.9,0.2
	c-0.6,0.1-1,0.1-1.4,0.1c-0.4,0-0.7,0-0.7-0.1c0-0.1-0.1-0.1-0.1-0.2c0,0,0-0.1,0-0.2v-8.1c1,0.1,1.7,0.2,2,0.2c0.4,0,1-0.1,1.9-0.2
	c0.8-0.1,1.3-0.1,1.7,0c0.3,0.1,0.6,0.2,0.7,0.3v7.2v0.9C50,53.4,49.8,53.3,49.4,53.3z M41.9,52.5c0.1,0.1,0.2,0.1,0.3,0.1
	s0.1,0,0.2,0l0,0v0.4h-3.3v-0.4l0,0c0.1,0,0.1,0,0.2,0c0.1,0,0.2,0,0.3-0.1c0.1-0.1,0.1-0.2,0.1-0.3c0-0.1,0-0.2-0.1-0.3
	c-0.1-0.1-0.2-0.1-0.3-0.1c-0.1,0-0.1,0-0.2,0l0,0v-0.6h3.3v0.7l0,0c-0.1,0-0.1,0-0.2,0c-0.1,0-0.2,0-0.3,0.1
	c-0.1,0.1-0.1,0.2-0.1,0.3C41.8,52.3,41.8,52.4,41.9,52.5z M39.1,50.8v-1.9h3.3v1.9H39.1z M39.2,48.4v-0.8l0,0c0.1,0,0.1,0,0.2,0
	c0.1,0,0.2,0,0.3-0.1s0.1-0.2,0.1-0.3c0-0.1,0-0.2-0.1-0.3s-0.2-0.1-0.3-0.1c-0.1,0-0.1,0-0.2,0l0,0l0,0v-0.2h3.2v0.2l0,0l0,0
	c-0.1,0-0.1,0-0.2,0c-0.1,0-0.2,0-0.3,0.1c-0.1,0.1-0.1,0.2-0.1,0.3c0,0.1,0,0.2,0.1,0.3c0.1,0.1,0.2,0.1,0.3,0.1s0.1,0,0.2,0l0,0
	v0.8H39.2z M31.5,53.8c0.3-0.1,0.7-0.2,1.2-0.1c0.6,0,1,0.1,1.3,0.1c0.6,0.1,1.1,0.1,1.7,0.2c0.8,0.1,1.3,0.1,1.9,0.1
	c0.1,0,0.2,0,0.3-0.1c0.1-0.1,0.1-0.2,0.1-0.4c0-1.6,0-2.9,0-4.1c0-0.7,0-1.6,0-2.4c0-1,0-1.6,0-1.8c0.2,0.1,0.4,0.2,0.6,0.4
	c0.1,0.1,0.2,0.3,0.3,0.4c0,1.2,0,2.4,0,3.7c0,1.6-0.1,3-0.1,4.6c0,0.3-0.2,0.4-0.6,0.4c-0.6,0-1.3,0-2.2-0.1
	c-0.9-0.1-1.6-0.2-2-0.3c-0.8-0.1-1.2-0.2-1.4-0.2c-0.4,0-0.8,0-0.9,0.1v-0.4H31.5z M31.5,53.5v-8c0,0,0.1,0,0.2-0.1
	c0.1-0.1,0.3-0.1,0.4-0.2c0.3-0.1,0.6-0.1,0.8-0.1s0.4,0,0.9,0.1c0.4,0.1,1.1,0.2,1.9,0.2c0.6,0,1.2,0,2-0.1c0.1,2.7,0,5.4-0.1,8.2
	c0,0.1,0,0.2-0.1,0.2c-0.1,0-0.3,0-0.6,0c-0.6,0-0.9,0-1.2-0.1c-0.8,0-1.4-0.1-1.9-0.1c-0.8-0.1-1.2-0.1-1.4-0.1
	C32,53.3,31.8,53.4,31.5,53.5z M24.7,53.7c0,0.1,0,0.3,0.1,0.4c0.1,0.1,0.2,0.1,0.3,0.1c0.7,0,1.2,0,2-0.1c0.3,0,0.9-0.1,1.7-0.2
	c0.6-0.1,1-0.1,1.3-0.2c0.4,0,0.9,0,1.2,0.1v0.3C31.2,54,30.9,54,30.4,54c-0.2,0-0.8,0.1-1.6,0.2c-0.8,0.1-1.4,0.2-2,0.3
	c-0.9,0.1-1.7,0.1-2.3,0.1c-0.3,0-0.6-0.1-0.6-0.4s0-0.6,0-0.9c0-2.1,0-4.6,0-7.3c0.2-0.4,0.6-0.7,1-0.9c0,0.9-0.1,2.3-0.1,4.2
	C24.5,51,24.5,52.4,24.7,53.7z M30.4,53.3c-0.2,0-0.8,0.1-1.4,0.2c-0.7,0.1-1.3,0.2-1.9,0.2c-0.6,0-1.1,0.1-1.8,0.1
	c-0.1,0-0.2,0-0.3-0.1c0,0-0.1-0.1-0.1-0.2l0,0v-0.1v-8.1c0.9,0.1,1.7,0.2,2,0.2c0.4,0,1-0.1,1.9-0.2c0.8-0.1,1.3-0.1,1.7,0
	c0.3,0.1,0.6,0.2,0.7,0.3v8.1C31,53.4,30.7,53.3,30.4,53.3z M23.4,46.5v0.2l0,0c-0.1,0-0.1,0-0.2,0c-0.1,0-0.2,0-0.3,0.1
	c-0.1,0.1-0.1,0.2-0.1,0.3s0,0.2,0.1,0.3c0.1,0.1,0.2,0.1,0.3,0.1s0.1,0,0.2,0l0,0v0.8h-3.8c-0.1-0.7-0.2-1.2-0.2-1.9L23.4,46.5
	L23.4,46.5z M23.4,48.9v1.9h-3.2c-0.2-0.7-0.3-1.2-0.4-1.9H23.4z M23.4,51.1v0.6l0,0c-0.1,0-0.1,0-0.2,0c-0.1,0-0.2,0-0.3,0.1
	s-0.1,0.2-0.1,0.3c0,0.1,0,0.2,0.1,0.3c0.1,0.1,0.2,0.1,0.3,0.1s0.1,0,0.2,0l0,0v0.3H21c-0.3-0.7-0.4-1.2-0.7-1.9h3.1V51.1z
	 M23.4,53.4c0,0.3,0,0.7,0,0.8c0,0.2,0,0.3,0.1,0.4s0.1,0.2,0.3,0.2c0.1,0,0.3,0.1,0.7,0.1c0.9,0,1.7,0,2.3-0.1
	c0.6-0.1,1.2-0.2,2-0.3c0.2,0,0.6-0.1,0.9-0.2c0.2,0,0.4-0.1,0.6-0.1c0.1,0,0.1,0,0.1,0s0,0,0.1,0.1c0.1,0.1,0.3,0.1,0.8,0.2l0,0
	c0.4,0,0.8-0.1,0.8-0.2l0.1-0.1h0.1c0.1,0,0.2,0,0.6,0.1c0.3,0.1,0.8,0.1,1.3,0.2c0.6,0.1,1.1,0.2,1.8,0.2c0.6,0.1,1.2,0.1,1.7,0.1
	c0.4,0,0.8,0,1,0c0.1,0,0.2-0.1,0.2-0.2c0-0.1,0.1-0.3,0.1-0.4c0-0.1,0-0.3,0-0.8h3.4c0,0.3,0,0.7,0,0.8c0,0.2,0,0.3,0.1,0.4
	c0.1,0.1,0.1,0.2,0.2,0.3c0.1,0.1,0.4,0.1,1,0.1c0.6,0,1.2,0,1.9-0.1c0.7-0.1,1.4-0.2,2.2-0.3c0.2,0,0.6-0.1,0.9-0.2
	c0.2,0,0.4-0.1,0.6-0.1s0.1,0,0.1,0s0,0,0.1,0.1c0.1,0.1,0.3,0.1,0.8,0.2l0,0c0.4,0,0.8-0.1,0.8-0.1l0.1-0.1h0.1
	c0.1,0,0.2,0,0.6,0.1c0.3,0,0.8,0.1,1.3,0.2c0.6,0.1,1.1,0.2,1.8,0.2c0.8,0.1,1.3,0.1,1.7,0.1c0.6,0,0.8,0,1,0
	c0.1,0,0.2-0.1,0.2-0.3c0-0.1,0.1-0.2,0.1-0.4c0-0.1,0-0.3,0-0.8h2.4l-1,1.9H22c-0.6-0.8-0.8-1.4-1-1.9h2.4V53.4z M48.8,59.9v-0.8
	c0.1,0,0.2,0,0.2,0c0.1,0,0.2,0,0.3-0.1c0.1-0.1,0.1-0.2,0.1-0.3c0-0.1,0-0.2-0.1-0.3c-0.1-0.1-0.2-0.1-0.3-0.1c-0.1,0-0.1,0-0.2,0
	V58h9.1c-0.4,0.7-0.9,1.3-1.4,1.9H48.8z M56.2,60.3c-0.1,0.2-0.3,0.3-0.4,0.6c-0.4,0.4-0.8,0.9-1.2,1.3h-5.9v-1.9H56.2z M48.7,64.1
	c0.1,0,0.1,0,0.2,0c0.1,0,0.2,0,0.3-0.1s0.1-0.2,0.1-0.3c0-0.1,0-0.2-0.1-0.3c-0.1-0.1-0.2-0.1-0.3-0.1c-0.1,0-0.1,0-0.2,0.1v-0.7
	h5.4c-0.7,0.7-1.4,1.3-2.2,1.9h-3.3L48.7,64.1z M54.8,12.9c3,1.6,5.6,3.2,7.4,5.2h-2.8C58,15.9,56.4,14.2,54.8,12.9z M27.9,14.6
	c1.1-1,2.2-1.9,3.6-2.6c1.3-0.8,2.8-1.3,4.1-1.7c1.6-0.4,3.1-0.7,4.8-0.7c1.3,0,2.8,0.1,4.4,0.4c1.6,0.3,3,0.8,4.4,1.4
	c1.4,0.8,2.9,1.7,4.2,2.9c1.2,1.1,2.3,2.3,3.3,3.7h-1.3c-1.9-2.3-4.1-4.2-6.8-5.4c-2.6-1.2-5.3-1.9-8.1-1.9s-5.4,0.7-8,2
	c-2.4,1.2-4.7,3-6.3,5.3H25C25.7,17,26.5,15.9,27.9,14.6z M54.7,18H27.2c1.6-2,3.4-3.6,5.7-4.7c2.4-1.3,5.1-1.9,7.8-2
	c2.8,0,5.4,0.6,8,1.8C50.9,14.4,52.9,16,54.7,18z M26.9,12.9c-1.7,1.3-3.2,3.1-4.7,5.1h-2.7C21.3,16.1,23.8,14.4,26.9,12.9z
	 M19.3,19h43l0.1,24.8h-8.3c-0.1-0.1-0.1-0.2-0.2-0.3c0-0.1,0-0.3,0-0.6c0-0.3,0-0.4,0-0.6c0-0.2-0.1-0.4-0.1-0.6
	c0-0.1,0-0.1,0.1-0.1c0,0,0.1,0.1,0.1,0.2c0-0.2,0-0.4-0.1-0.8c-0.1-0.2-0.1-0.4-0.1-0.7c0.1,0,0.2,0,0.2,0.2
	c0.3-1.3,0.4-2.8,0.4-4.2c0.1,0,0.1,0.2,0.2,0.6c0.1-0.6,0.1-1.2,0-2c0-0.2,0-0.7,0.1-1.1c0.1-0.8,0.1-1.4-0.1-2.2
	c0.1,0.2,0.3,0.4,0.6,0.4c-0.3-0.7-0.7-1.4-0.9-2.2c0-0.2,0-0.4,0-0.6s0.1-0.2,0.2-0.6c0.1-0.2,0.1-0.4,0.1-0.4l0.1,0.3
	c0,0,0.1-0.1,0.1-0.2c0-0.1,0-0.2,0.1-0.4c0.1-0.4,0.1-0.7,0.2-0.8c0.1,0.1,0.1,0.3,0.1,0.4c0.2-0.8,0.1-1.7-0.1-2.6L55,23.4
	c0.2-0.1,0.3-0.3,0.3-0.7v-0.6c0.1,0,0.1,0.1,0.2,0.3c0-0.1-0.1-0.3-0.1-0.7c0-0.2-0.1-0.3-0.1-0.4c-0.4-0.6-1.1-0.8-1.9-0.7
	c0-0.3-0.1-0.6-0.3-0.8c0-0.1,0-0.1,0.1-0.1c-0.2-0.2-0.4-0.3-0.7-0.3c-0.1,0-0.1,0-0.2-0.1c-0.1,0-0.2-0.1-0.3-0.1
	c-0.2-0.1-0.4-0.1-0.6,0c-0.6,0.1-0.9,0.3-1,0.9c-1.1-0.2-2-0.3-2.3-0.1c0-0.1,0.1-0.1,0.1-0.1c-0.4,0-0.7,0.2-0.9,0.4
	c-1.1,0.1-2.2,0.3-3.3,0.6c-0.7,0.1-1.3,0.1-1.8,0c-0.1,0.1-0.1,0.2-0.2,0.3c0,0.1,0,0.2,0,0.4c0.2,0.4,0.3,0.9,0.1,1.2l-0.2,0.6
	c-0.1,0.1-0.1,0.2-0.1,0.3c0,0.1,0,0.1,0,0.2c0,0,0.1,0.1,0.2,0.2c0.1,0,0.3,0.1,0.3,0.2l0.4,0.3c0.1-0.3,0.3-0.6,0.6-0.8
	c0.1,0,0.1,0,0.2,0c0.1,0.2,0.3,0.4,0.8,0.8c0.1-0.2,0.2-0.4,0.4-0.6h0.1c0,0,0.1,0,0.1,0.1s0.1,0.1,0.3,0.2
	c0.1,0.1,0.2,0.1,0.2,0.1c0.1-0.1,0.2-0.1,0.3-0.1c0.1,0,0.2,0,0.2,0v0.1c0,0.2,0.1,0.4,0.2,0.6c0.2-0.1,0.4-0.2,0.6-0.1
	c0.6,0.4,0.7,0.7,0.4,0.8c-1.4-0.1-2.3-0.1-2.6-0.1c-0.8-0.1-1.6-0.2-2.1-0.3c-0.6-0.2-1.1-0.4-1.4-0.7c-0.2-0.2-0.4-0.4-0.7-0.9
	c-0.1-0.1-0.2-0.2-0.4-0.3c-0.1,0-0.2,0-0.3,0.1c-0.1,0.1-0.2,0.2-0.2,0.4c0,0.2,0,0.4,0.1,0.7c0.7,1.4,2.2,2.3,4.7,2.4
	c2.1,0.1,3.1,0.4,2.9,0.8c0,0.1-0.1,0.1-0.2,0.1c-0.1-0.1-0.2-0.1-0.3-0.2l-0.1-0.1c-0.3,0.1-0.6,0.3-0.8,0.6
	c-0.2-0.1-0.4-0.3-0.6-0.4c-0.2,0.1-0.4,0.2-0.7,0.6c-0.2-0.3-0.3-0.6-0.4-0.9c-0.4,0.1-0.7,0.3-0.9,0.8c-0.1,0-0.2,0.1-0.2,0.1
	c0,0.1,0,0.2,0.1,0.2V29l0,0c0,0,0,0.1-0.1,0.1c0,0.1,0,0.3,0.1,0.6c0.1-0.1,0.2-0.2,0.3-0.2c0,0.2,0.1,0.4,0.3,0.7
	c0-0.1,0.1-0.2,0.2-0.3c0,0.1,0.1,0.1,0.1,0.2c0,0,0.1,0,0.1,0.1c0-0.1,0-0.2,0-0.2c0.2,0.1,0.4,0.2,0.7,0.2
	c-0.1,0.1-0.1,0.2-0.1,0.4c-0.3,0.1-0.7,0.4-1,0.7c-0.3,0-0.7,0-1,0.3c0.1,0,0.2,0,0.2,0.1c-0.4,0.2-1,0.6-1.6,1.1
	c-0.2,0.2-0.3,0.3-0.6,0.6l-0.2,0.2c0.1,0,0.2,0,0.2,0c0.1,0,0.1,0,0.1,0l-1.6,1.8c-0.6,0-0.9,0-1.2,0.2c-0.2-0.1-0.4-0.2-0.8-0.2
	c-0.3-0.1-0.6-0.1-0.7-0.1c-0.1,0-0.2,0-0.2,0h-0.1l0.1-0.1l0.1-0.1c-0.2,0-0.6,0.1-0.9,0c-0.4,0-0.7,0-0.9,0c0-0.1,0.1-0.1,0.2-0.2
	c0,0-0.2,0-0.4,0s-0.4,0-0.6,0c0.1-0.1,0.2-0.1,0.2-0.2c-0.2,0.1-0.6,0.1-1,0c-0.4-0.1-0.7-0.1-0.8-0.1c-0.1-0.1-0.1-0.1,0-0.1
	c0,0,0.1-0.1,0.2-0.1l-1.1-0.1c0.1-0.1,0.2-0.2,0.2-0.3c-0.3,0.1-0.6,0.1-0.9,0c-0.2-0.1-0.4-0.2-0.4-0.4c-0.1,0-0.1,0.1-0.1,0.2
	c-0.1-0.2-0.2-0.3-0.4-0.6c-0.2-0.1-0.3-0.3-0.4-0.3c-0.1-0.1-0.2-0.4-0.3-0.9c0-0.2,0-0.4-0.1-0.7c0-0.2,0-0.3-0.1-0.4
	c-0.1-0.1-0.1-0.2-0.1-0.3c0.1,0.1,0.2,0.1,0.3,0.1c-0.3-0.4-0.6-0.9-0.6-1.4c0,0,0,0,0.1,0c0,0,0.1,0,0.2,0.1c0.1,0,0.1,0,0.1,0
	c-0.2-0.2-0.3-0.6-0.3-0.8c0-0.1,0-0.2,0-0.3c0-0.2,0-0.3,0-0.3c0-0.1,0.1-0.1,0.2-0.3c0.1-0.1,0.1-0.2,0.1-0.3s0.1-0.1,0.2-0.2
	l0.3-0.2c0.1-0.1,0.1-0.2,0.1-0.3c0-0.1,0-0.2-0.2-0.3c-0.1-0.1-0.2-0.2-0.2-0.3c0-0.1,0-0.2,0.1-0.3c0.1-0.1,0.2-0.3,0.2-0.4
	c0-0.1,0.1-0.3,0.1-0.6c0-0.1,0-0.3-0.1-0.7c0-0.3-0.1-0.4-0.1-0.6c0-0.4,0.1-0.9,0.6-1.4c-0.6,0-0.9,0.3-1.1,0.9
	c-0.2,0.6-0.4,1-0.8,1.4V24c0,0.1,0.1,0.1,0.1,0.1s0.1,0,0.1-0.1c0-0.1,0.1-0.1,0.1-0.1c0.4,0,0.6,0.1,0.4,0.4
	c0,0.1-0.1,0.2-0.2,0.4c0.2,0.2,0.2,0.4,0.1,0.8c-0.1,0-0.2,0-0.2,0.1c-0.1,0.1-0.3,0.2-0.6,0.3H28c-0.2,0.1-0.4,0.1-0.8,0.1
	c-0.4,0-0.8,0-1-0.1L26,25.9c-0.1,0-0.1-0.1-0.2-0.1c0-0.1,0-0.2-0.1-0.2c-0.1,0-0.1,0-0.3,0L25,24.8c0-0.2,0-0.3,0-0.3s0,0,0.1,0
	c0,0,0,0,0.1,0c0.1,0.1,0.1,0.3,0.1,0.6c0.1-0.1,0.2-0.2,0-0.3c-0.1-0.1-0.1-0.2-0.1-0.6c0-0.1-0.1-0.2-0.1-0.3
	c-0.1-0.1-0.2-0.3-0.3-0.3c-0.1-0.2-0.2-0.4-0.2-0.8c-0.1,0.4-0.1,1,0,1.6c0.1,0.2,0.1,0.4,0,0.7c0,0.2,0,0.4,0.1,0.6
	c0.2,0.3,0.2,0.6,0,0.8c-0.1,0.2-0.1,0.3,0,0.6l0.4,0.3c-0.1,0.2,0,0.3,0.2,0.4c0.2,0.3,0.3,0.7,0.3,0.9c-0.2-0.1-0.3-0.1-0.6,0
	c0.3,0.2,0.6,0.6,0.7,1c-0.4-0.3-0.9-0.4-1.3-0.3c0.3,0.2,0.6,0.6,0.7,1c-0.2,0.3-0.1,0.7,0.2,1.1c-0.2,0.1-0.2,0.4-0.1,1l0.2-0.3
	c0,0.3,0.1,0.6,0.3,0.9c0-0.3,0.1-0.4,0.1-0.3l0.2,0.4l0.1,1.2l-0.1,0.2c0.1,0.1,0.2,0.3,0.3,0.7l-0.1,0.1c0,0,0,0-0.1,0l0,0
	c-0.3-0.1-0.7-0.1-1,0c0.2,0.1,0.4,0.3,0.7,0.6l-0.1,0.1c-0.3-0.1-0.7-0.1-1.1,0.1c0.3,0.2,0.7,0.6,0.9,0.9l-0.1,0.3
	c0,0.1,0,0.3,0.2,0.4c-0.2,0.1-0.2,0.4-0.1,1.1c0.1-0.2,0.1-0.3,0.2-0.4c0,0.4,0.1,0.8,0.3,1.1c0-0.2,0-0.3,0.1-0.6l0.3,0.6v2.3
	c0,0.1,0,0.2,0,0.2c0,0.1-0.1,0.1-0.2,0.2h-0.1c0,0,0,0,0,0.1v0.2c0.1,0,0.1,0,0.1,0v0.1c0,0.1,0.1,0.2,0.2,0.3
	c0.1,0.1,0.3,0.1,0.4,0.2c0.2,0,0.3,0,0.6-0.1c0.2-0.1,0.3-0.2,0.4-0.4c0-0.1,0-0.1,0-0.1h0.1c0.1-0.1,0.1-0.2,0-0.3L27.9,42v-0.1
	v-1l0,0V41c0.1,0.2,0.1,0.2,0.2,0.3c0-0.1,0-0.2,0.1-0.3c0.2,0.8,0.4,1.4,1,2c0-0.1-0.1-0.2,0-0.4c0.2,0.2,0.4,0.3,0.8,0.4
	c-0.1-0.1-0.2-0.2-0.1-0.2c0.9,0.1,1.6,0.2,2.3,0.1c0,0-0.1,0.1-0.2,0.1h1.1c-0.1,0-0.1-0.1,0-0.1h0.1l0.2,0.1
	c0.2,0.1,0.6,0.2,1,0.2c-0.1-0.1-0.1-0.1-0.1-0.1s0.2,0,0.6,0c0.3,0.1,0.7,0.1,0.9,0.1c-0.1,0-0.1-0.1-0.1-0.1s0.1,0,0.2,0l0.6,0.1
	c0.7,0.1,1.1,0.2,1.6,0.1c0,0,0.1,0,0.2,0.1l-0.1-0.2c0.6,0,1,0.1,1.3,0.3H19.1L19.3,19z M45.8,24.8l-0.2,0.1l-0.1-0.2L45.8,24.8z
	 M44.7,24.5l-0.2,0.3l-0.2-0.3H44.7z M43.2,24.4l-0.3,0.4l-0.1-0.1v-0.3H43L43.2,24.4z M45.4,28.5c-0.1,0-0.2,0-0.3-0.1
	c0-0.1,0.1-0.1,0.2-0.2C45.2,28.4,45.3,28.5,45.4,28.5z M44.3,28.4c-0.1,0-0.2,0-0.4-0.1c0-0.1,0.1-0.2,0.2-0.2
	C44.1,28.2,44.2,28.3,44.3,28.4z M29.8,38c-0.1-0.1-0.1-0.2-0.1-0.3c-0.1-0.1-0.1-0.2-0.2-0.2c0.1,0.1,0.2,0.1,0.3,0
	c-0.1-0.1-0.2-0.2-0.2-0.3c0,0,0.1,0.1,0.2,0.1c0.1,0.1,0.2,0.2,0.4,0.3c0-0.1,0-0.2,0-0.3c0.2,0.1,0.3,0.2,0.4,0.3
	c0.1,0,0.2,0.1,0.3,0.1c0.3,0.1,0.7,0.4,1.2,0.8c0.2,0.1,0.6,0.2,1,0.2c0,0.1-0.1,0.2-0.2,0.3c-0.1,0-0.2,0.1-0.4,0
	c-0.1,0-0.2,0-0.3,0c-0.1,0-0.2,0.1-0.3,0.1c-0.2,0.1-0.6,0.1-0.8,0c-0.1,0-0.3-0.1-0.4-0.2c0,0-0.2-0.1-0.4-0.3
	c0.1,0,0.2,0,0.2-0.1C30.2,38.4,30,38.2,29.8,38z M27.5,27.4c0,0,0.1,0.1,0.2,0.1c0.2,0,0.3,0,0.4,0c0.2,0,0.2,0.1,0.1,0.3
	c-0.1,0.2-0.1,0.6-0.1,0.9l-0.4,0.4c0,0,0,0.1,0.1,0.2c0.1,0.1,0.2,0.2,0.2,0.2s0,0.1-0.1,0.1c-0.1,0-0.1,0.1-0.1,0.2
	c0,0.1,0,0.1,0.1,0.2c0,0.1,0.1,0.2,0.1,0.2v1.4c0,0-0.1,0.1-0.1,0.3c0,0.2,0,0.4,0,0.7c0,0.2,0,0.4,0,0.7c0,0.2,0,0.3,0,0.4
	c-0.2-0.2-0.6-0.2-0.9-0.1c0.1,0.1,0.2,0.3,0.2,0.6c-0.1-0.1-0.2-0.2-0.3-0.1l-0.2-4.4l0.2-0.8c-0.1-0.1-0.1-0.1-0.1-0.2
	c0-0.1,0-0.1,0.1-0.2c0.1-0.1,0.1-0.2,0.1-0.2c0-0.1,0-0.1,0-0.2l-0.4-0.1c0-0.1,0-0.2,0-0.3c0,0,0.1-0.1,0.2-0.1c0.1,0,0.2,0,0.2,0
	c0.1,0,0.1-0.1,0-0.2l-0.8-0.2c-0.1-0.1-0.1-0.1-0.1-0.2v-0.1c0-0.1,0.1-0.1,0.1-0.2c0-0.1,0-0.2,0-0.2s0,0,0.1,0c0,0,0.1,0,0.2,0.1
	c0.2,0.1,0.4,0.1,0.6,0.1c0,0.2,0.1,0.3,0.1,0.3s0.1-0.1,0.3-0.2c0.1-0.1,0.3-0.1,0.7-0.1h0.1c0.1,0,0.1,0,0.1,0
	c0.1,0,0.1,0,0.2-0.1c0.1-0.1,0.2-0.1,0.3-0.2c0,0,0.1,0,0.1-0.1v0.1c0,0,0,0.1,0.1,0.1c0,0.1,0,0.2-0.1,0.2
	c-0.2,0.2-0.4,0.3-0.8,0.4c-0.2,0.1-0.4,0.1-0.7,0.2C27.5,27.3,27.5,27.4,27.5,27.4z M28.4,34.2l-0.3-0.3l0.2,0.1L28.4,34.2z
	 M27.3,42.3l-0.1-0.1c-0.2-0.1-0.3-0.2-0.3-0.3c0-0.7,0-1.1,0-1.4c0-0.2,0.1-0.3,0.2-0.2c0.1,0,0.2,0.1,0.4,0.4
	c0.2,0.2,0.2,0.7,0.1,1.4c-0.2,0.2-0.2,0.3-0.1,0.4c0.1,0.1,0.2,0.2,0.2,0.3c0,0.1-0.1,0.1-0.2,0.2c-0.1,0-0.2,0-0.3,0
	C27.1,43,27,43,27,42.8c0-0.1,0.1-0.1,0.3-0.1C27.4,42.3,27.4,42.3,27.3,42.3z M26.4,34.3l-0.1-0.1h0.3l0.3,0.1H26.4z M27.2,33.9
	h0.2l0.2,0.2C27.4,34.1,27.3,34,27.2,33.9z M25.7,29.3h-0.3l-0.2-0.1C25.4,29.2,25.7,29.2,25.7,29.3z M26.3,35.2h-0.6l-0.2-0.1h0.3
	L26.3,35.2z M26,36c-0.4,0-0.8,0-0.9-0.1c0.1,0,0.3-0.1,0.6-0.1c0,0,0,0,0.1,0.1C25.8,35.9,25.9,36,26,36z M15.7,22.2
	c0.7-1,1.6-2.1,2.8-3.3v2.7C17.8,21.7,16.8,21.9,15.7,22.2z M18.8,48.7c0.3,1.7,0.8,3.2,1.3,4.7c1.2,3,3,5.8,5.1,8.2
	c0.9,1,1.9,2,2.9,2.9c-0.8-0.1-1.8-0.3-2.8-0.7c-1-0.3-2.3-0.9-3.9-1.8c-1.6-0.9-3-2.1-4.2-3.4c-1.2-1.4-2.1-2.9-2.8-4.3
	c-0.7-1.4-1.1-3-1.3-4.8c-0.2-1.7-0.2-3.3,0-5.1c0.2-1.7,0.9-3.6,1.8-5.6c1-2,2.1-3.6,3.4-4.7v10.3C18.4,45.8,18.6,47.2,18.8,48.7z
	 M16.4,26.1c0.7-0.3,1.3-0.6,2-0.7v7.1C17.4,30.1,16.8,28,16.4,26.1z M18.6,23.4v1.3c-0.9,0.2-1.8,0.4-2.7,0.8l-1.4-0.9
	C15.4,24.2,16.9,23.8,18.6,23.4z M14.2,25.3l1.3,0.8c0.6,2.3,1.3,4.7,2.2,7L16.3,33C15.3,30.3,14.7,27.8,14.2,25.3z M24.7,65.3
	c-2-0.7-3.9-1.6-5.7-2.8c-1.8-1.2-3-2.4-3.8-3.6c-0.8-1.1-1.6-2.6-2.3-4.2c-0.8-1.7-1.2-3.3-1.6-5.1c-0.2-1.8-0.2-3.8,0-5.8
	c0.3-2,0.9-3.9,1.7-5.7c0.8-1.8,1.9-3.3,3.2-4.7h1.6c-1.4,1.7-2.6,3.2-3.3,4.7c-0.8,1.6-1.4,3.2-1.8,4.9c-0.3,1.7-0.4,3.4-0.2,5.2
	c0.1,1.8,0.6,3.6,1.3,5.2c0.7,1.8,1.7,3.3,2.9,4.8c1.2,1.4,2.6,2.7,4.2,3.7c1.6,1,3.1,1.7,4.4,2.1c1.3,0.3,2.7,0.6,3.8,0.7
	c0.1,0.1,0.2,0.2,0.3,0.3c0.4,0.3,0.9,0.7,1.3,1C28.7,66.3,26.7,66,24.7,65.3z M37.2,71.8c-4.3-0.6-8.3-1.9-12-4.1
	c2.7,0.4,5.3,0.6,8,0.3c0.6,0.3,1,0.6,1.6,0.8L37.2,71.8z M37.8,69.6c0.2,0.1,0.6,0.1,0.8,0.1l0,0c0.6,0.8,1.2,1.3,2.1,1.7v0.7
	C39.5,71.5,38.7,70.8,37.8,69.6z M39,69.9c0.6,0.1,1,0.1,1.6,0.2v1.1C39.8,70.8,39.2,70.3,39,69.9z M41.1,72.1v-0.6
	c0.9-0.4,1.6-1,2-1.7c0.3-0.1,0.6-0.1,0.9-0.2C43.1,70.8,42.1,71.5,41.1,72.1z M41.1,71.2v-1.1c0.6,0,1.1-0.1,1.7-0.2
	C42.2,70.5,41.7,71,41.1,71.2z M40.9,69.2c-2.6-0.2-4.9-0.9-7-1.9h14C45.8,68.3,43.4,69,40.9,69.2z M56.8,67.6
	c-3.9,2.2-8,3.6-12.4,4.1c1-1,1.9-2,2.6-3.1c0.6-0.2,1.1-0.6,1.7-0.8C51.1,68.3,53.9,68.2,56.8,67.6z M49.3,66.4
	c-0.1,0.1-0.3,0.2-0.4,0.2c-0.1,0-0.2,0.1-0.2,0.1H33.2c-0.7-0.4-1.4-0.9-2.1-1.3c-0.2-0.2-0.6-0.3-0.8-0.6H32h1c0,0.2,0,0.4,0,0.6
	v0.1c0,0.2,0,0.4,0,0.6s0.1,0.2,0.2,0.3c0.1,0.1,0.4,0.1,1,0.1s1.2-0.1,1.9-0.2c0.7-0.1,1.4-0.2,2.2-0.3c0.2,0,0.6-0.1,0.9-0.2
	c0.2,0,0.4-0.1,0.6-0.1s0.1,0,0.1,0s0,0.1,0.1,0.1c0.1,0.1,0.3,0.1,0.8,0.2l0,0c0.4,0,0.8-0.1,0.8-0.1l0.1-0.1h0.1
	c0.1,0,0.2,0,0.6,0c0.2,0,0.8,0.1,1.3,0.2c0.7,0.1,1.2,0.2,2,0.3c0.7,0.1,1.2,0.2,1.6,0.2c0.6,0,0.8,0,0.9,0c0.1,0,0.2-0.1,0.3-0.2
	c0.1-0.2,0.1-0.3,0.1-0.6s0-0.4,0-0.8h2.9C50.8,65.4,50,66,49.3,66.4z M70.5,49.8c-0.2,1.8-0.8,3.4-1.6,5.1c-0.8,1.7-1.6,3-2.3,4.2
	c-0.8,1.1-2.1,2.3-3.8,3.6c-1.8,1.2-3.7,2.1-5.7,2.8c-2,0.7-4.1,1-6.1,1c0.6-0.4,1.1-0.9,1.7-1.3c1.2-0.1,2.6-0.3,3.9-0.7
	c1.3-0.3,2.9-1.1,4.4-2.1c1.6-1,3-2.2,4.2-3.7c1.2-1.4,2.1-3,2.9-4.8c0.7-1.8,1.1-3.4,1.3-5.2c0.1-1.8,0.1-3.6-0.2-5.2
	c-0.3-1.7-0.9-3.3-1.8-4.9c-0.8-1.4-1.9-3-3.3-4.7h1.6c1.3,1.3,2.4,2.9,3.2,4.7c0.8,1.8,1.3,3.7,1.7,5.7
	C70.8,46,70.8,47.9,70.5,49.8z M74.1,30.1l0.2,0.2C74.2,30.2,74.1,30.1,74.1,30.1z M72.3,35c-0.2-1.7-0.8-3.4-1.4-5.1
	c-0.6-1.4-1.2-2.9-2.1-4.4c-0.2,1.2-0.4,2.4-0.9,3.9c-0.3,1.1-0.7,2.4-1.2,4c1.7,2.1,3,4.2,3.9,6.4c0.9,2.2,1.4,4.7,1.6,7.1
	c0.4-2,0.7-4.1,0.7-6.2C72.8,38.9,72.6,37,72.3,35z M72.2,42.1c-1.2-4-2.8-6.9-4.7-8.9c0.8-2.2,1.3-4.1,1.7-5.8
	C71.3,31.9,72.3,36.8,72.2,42.1z M44.3,60.4v0.1l0.9-0.1v-1.2c0,0,0.1,0,0.2,0c0.1,0,0.1,0.1,0.2,0.1c0,0,0.1,0.2,0.2,0.6
	c0,0.1,0.1,0.2,0.2,0.3c0,0.1,0.1,0.1,0.1,0.2c0.1,0.1,0.2,0.1,0.2,0.1c0.2,0,0.4,0,0.8,0c-0.2-0.1-0.4-0.3-0.6-0.7
	c-0.1-0.2-0.1-0.3-0.1-0.4c-0.1-0.1-0.1-0.3-0.2-0.4c0.2-0.2,0.3-0.6,0.4-0.8c0-0.2,0-0.4-0.2-0.6c-0.3-0.3-1.1-0.3-2.2-0.2v0.2
	c0.2,0,0.3,0.1,0.3,0.4V60C44.7,60.2,44.5,60.4,44.3,60.4z M45.3,58.1c0.6,0,0.8,0.1,0.9,0.3c0,0.1,0,0.2-0.1,0.3
	c-0.1,0.1-0.2,0.1-0.4,0.2c-0.2,0.1-0.3,0-0.3-0.1V58.1z M53.8,49l0.2,0.2l0.9-0.1c0,0,0-0.1,0-0.2s0-0.1,0-0.1h-0.1
	c-0.1,0-0.1-0.1-0.1-0.1v-2c0-0.1,0.1-0.3,0.2-0.3v-0.2h-1.1v0.2c0.1,0,0.2,0.1,0.2,0.2v2.1C54.1,48.8,54,48.9,53.8,49z M44.1,49
	l0.2,0.2l0.9-0.1c0-0.1,0-0.1,0-0.2s0-0.1,0-0.1h-0.1c-0.1,0-0.1-0.1-0.1-0.1v-2c0-0.1,0.1-0.3,0.2-0.3v-0.2h-1.1v0.2
	c0.1,0,0.2,0.1,0.2,0.2v2.1C44.4,48.9,44.3,49,44.1,49z M53.2,51h-0.4l0.2,0.4l-0.2,0.4h0.4l0.2,0.4l0.2-0.4h0.4l-0.2-0.4l0.2-0.4
	h-0.4l-0.2-0.4L53.2,51z M48.2,46.3c-0.1,0.2-0.2,0.3-0.1,0.7c0,0.2,0.2,0.4,0.6,0.6c0.3,0.1,0.6,0.3,0.7,0.6s0.1,0.3,0,0.6
	c-0.2,0.2-0.6,0.1-0.8,0v-0.2l-0.2-0.2l-0.2,1l0.6,0.1v-0.1c0.8,0.2,1.2,0,1.3-0.4c0-0.3,0-0.6,0-0.8c0-0.1-0.1-0.2-0.2-0.3
	c-0.1,0-0.2-0.1-0.4-0.1c-0.2-0.1-0.3-0.1-0.4-0.1c-0.1-0.1-0.2-0.2-0.2-0.3s0-0.2,0.1-0.3c0.1-0.1,0.1-0.2,0.2-0.2
	c0.1,0,0.2,0,0.3,0.2L49.2,47h0.3l0.2-0.8h-0.3l-0.1,0.1c-0.2-0.1-0.6-0.1-0.7-0.1C48.5,46.1,48.3,46.2,48.2,46.3z M46.4,50
	c0-0.1,0-0.2,0-0.3H44c0,0.1,0,0.2,0,0.3c0,0.1,0,0.3,0,0.3h0.2c0-0.1,0-0.2,0.1-0.3l0.1-0.1l0,0h0.1c0.1,0,0.1,0,0.2,0v2.4
	c0,0.2-0.2,0.3-0.4,0.4v0.1h1.2c0,0,0-0.1,0-0.2c0-0.1,0-0.1,0-0.2c-0.1,0-0.2-0.1-0.3-0.2v-2.3c0.2,0,0.3,0,0.4,0
	c0.1,0,0.2,0.1,0.2,0.3h0.2C46.5,50.2,46.5,50.1,46.4,50z M45.8,46.4l0.8,2.7l0.4,0.1l0.1-0.1l-0.2-0.2l1-2.4
	c0.1-0.1,0.1-0.1,0.2-0.2c0.1,0,0.2-0.1,0.3-0.1V46h-0.9l0.1,0.2l-0.8,1.9l-0.6-2h-0.9v0.2C45.5,46.2,45.7,46.3,45.8,46.4z
	 M51.5,46.3h0.1c0.1,0,0.1,0,0.2,0v2.4c0,0.2-0.2,0.3-0.4,0.4v0.1h1.2c0,0,0-0.1,0-0.2s0-0.1,0-0.2c-0.1,0-0.2-0.1-0.3-0.2v-2.3
	c0.2,0,0.4,0,0.6,0s0.2,0.1,0.2,0.3h0.2c0-0.1,0-0.2,0-0.4c0-0.1,0-0.2,0-0.3h-2.6c0,0.1,0,0.2,0,0.3s0,0.3,0,0.3H51
	c0-0.1,0-0.2,0.1-0.3C51.4,46.4,51.5,46.3,51.5,46.3z M35.5,49l0.2,0.2l0.9-0.1c0-0.1,0-0.1,0-0.2s0-0.1,0-0.1h-0.1
	c-0.1,0-0.1-0.1-0.1-0.1v-2c0-0.1,0.1-0.3,0.2-0.3v-0.2h-1.1v0.2c0.1,0,0.2,0.1,0.2,0.2v2.1C35.9,48.9,35.8,49,35.5,49z M34.7,60.7
	l0.1,0.1l1.9-0.1l0.3-1.1c-0.3,0.4-0.6,0.8-0.8,0.9c-0.1,0-0.2,0-0.3,0l-0.2-0.2V58c0-0.2,0.1-0.2,0.2-0.3l0.1-0.2l-1.2,0.1l0.1,0.2
	c0.1,0,0.1,0,0.1,0.1V60C35,60.4,34.9,60.5,34.7,60.7z M37.1,58.1v2.1c0,0.2-0.1,0.3-0.3,0.3l0.2,0.2l0.9-0.1c0-0.1,0-0.1,0-0.2
	s0-0.1,0-0.1h-0.1c-0.1,0-0.1-0.1-0.1-0.1v-2c0-0.1,0.1-0.3,0.2-0.3v-0.2h-1.1v0.2C37,57.9,37.1,58,37.1,58.1z M39.9,60.7
	c0.2,0,0.3-0.1,0.4-0.3c0.1-0.1,0.1-0.3,0.1-0.4c0-0.2,0-0.3-0.1-0.6c-0.1-0.2-0.2-0.3-0.4-0.3c0.6-0.6,0.6-1-0.1-1.4l-1.6,0.1
	c0,0.1,0,0.1,0,0.2h0.1c0.1,0,0.2,0,0.1,0.1l-0.1,2c0,0.2-0.1,0.3-0.2,0.4l0.1,0.1h1.7V60.7z M40,59.7c0.1,0.3,0,0.4-0.2,0.6
	c-0.3,0.2-0.6,0.2-0.8-0.1v-0.8C39.3,59.3,39.7,59.4,40,59.7z M38.9,58.2h0.6c0.1,0.1,0.2,0.1,0.3,0.2c0,0.1,0,0.2,0,0.2
	c-0.1,0.2-0.3,0.2-0.8,0.3C38.9,58.9,38.9,58.7,38.9,58.2z M32.5,52.2V52l-0.2-0.2l-0.2,1l0.7,0.1v-0.1c0.9,0.2,1.4,0,1.6-0.4
	c0.1-0.3,0.1-0.6,0-0.8c0-0.1-0.1-0.2-0.3-0.3c-0.1,0-0.2-0.1-0.4-0.1C33.3,51,33.1,51,33,51c-0.1-0.1-0.2-0.2-0.2-0.3
	c0-0.1,0-0.2,0.1-0.3c0.1-0.1,0.2-0.2,0.3-0.2c0.1,0,0.3,0,0.4,0.2l-0.1,0.2H34l0.2-0.8h-0.4l-0.1,0.1c-0.3-0.1-0.6-0.1-0.8-0.1
	c-0.2,0-0.3,0.1-0.6,0.2c-0.1,0.2-0.2,0.3-0.2,0.7c0,0.2,0.2,0.4,0.7,0.6c0.3,0.1,0.7,0.3,0.8,0.6c0.1,0.2,0.1,0.3,0,0.6
	C33.2,52.4,32.9,52.4,32.5,52.2z M35.2,51.5L35,52h0.4l0.2,0.4l0.2-0.4h0.4l-0.2-0.4l0.2-0.4h-0.4l-0.2-0.4l-0.2,0.4H35L35.2,51.5z
	 M32.3,48.9V49l0.9-0.1v-1.2c0,0,0.1-0.1,0.2,0c0.1,0,0.1,0.1,0.2,0.1c0,0,0.1,0.2,0.2,0.6c0,0.1,0.1,0.2,0.2,0.3
	c0,0.1,0.1,0.1,0.1,0.2c0.1,0.1,0.2,0.1,0.2,0.1c0.2,0,0.4,0,0.8,0c-0.2-0.1-0.4-0.3-0.6-0.7c-0.1-0.2-0.1-0.3-0.1-0.4
	c-0.1-0.1-0.1-0.3-0.2-0.4c0.2-0.2,0.3-0.6,0.4-0.8c0-0.2,0-0.4-0.2-0.6c-0.3-0.3-1.1-0.3-2.2-0.2v0.2c0.2,0,0.3,0.1,0.3,0.4v1.9
	C32.5,48.7,32.4,48.8,32.3,48.9z M33.2,46.4c0.6,0,0.8,0.1,0.9,0.3c0,0.1,0,0.2-0.1,0.3c-0.1,0.1-0.2,0.1-0.4,0.2
	c-0.2,0.1-0.3,0-0.3-0.1V46.4z M40.1,63.9c-0.2-0.6-0.3-1.2-0.4-2c0-0.3,0.1-0.4,0.4-0.4l0.1-0.3l-2.6,0.1c0,0.1,0,0.2,0.1,0.2
	c0,0,0.1,0.1,0.2,0c0.1,0,0.1,0,0.2,0.1c0,0.1,0,0.1,0,0.2l-0.6,2c0,0.2-0.1,0.3-0.3,0.4l0.1,0.1h0.8l0.2-0.9c0.1-0.4,0.4-0.6,1-0.4
	l0.4,1.4l0.6-0.1l0.1-0.2C40.3,64.1,40.2,64.1,40.1,63.9z M39.3,62.4c0,0.1,0,0.2-0.1,0.2s-0.2,0-0.4,0c-0.1,0-0.1-0.1-0.1-0.1
	c0-0.3,0-0.6,0.1-0.9c0.2-0.1,0.3-0.1,0.4,0.1C39.3,62,39.4,62.2,39.3,62.4z M47.5,52.4L47.5,52.4 M47.5,52.4c0,0.1-0.1,0.2-0.3,0.3
	l0,0 M40.7,65.5v-0.3 M41.1,71.2v-1.1 M40.5,72.1v-0.7 M41.1,72.1v-0.6 M40.5,71.2v-1.1 M29.8,64.5l-2.1-1.9 M41.1,57v8.1 M25.1,60
	l-1.4-1.9 M77.9,30c-0.1-0.1-0.1-0.2-0.2-0.1c-0.1,0-0.9,0-2.3-0.1c-0.8,0-1.4-0.1-2.1-0.1c-0.2-0.1-0.4-0.3-0.6-0.4
	c-0.1,0-0.2,0-0.2,0.2c0,0.2,0.1,0.4,0.2,0.8l0,0v0.1c0.1,0.2,0.2,0.4,0.3,0.6c0.1,0,0.1,0,0.2,0c0.1,0,0.1-0.1,0.1-0.3l0,0
	c0-0.1,0-0.1,0-0.2l0.1-0.1l0,0c0.1-0.1,0.3-0.1,0.7,0l0.2,0.2c0.2,0.4,0.3,1,0.6,1.7c-0.2,0.2-0.4,0.4-0.8,0.6c-0.1,0-0.1,0-0.2,0
	c-0.1-0.1-0.1-0.2-0.2-0.2c-0.1-0.1-0.2-0.1-0.3,0.1c0.1,0.7,0.3,1.2,0.6,1.7c0.1,0.1,0.1,0.1,0.2,0.1c0.1,0,0.1-0.1,0.1-0.2
	c0-0.1,0-0.2,0-0.2c0-0.1,0.1-0.2,0.2-0.3c0.4-0.4,1.2-1,2.1-1.8c0.9-0.8,1.3-1.2,1.4-1.3C78,30.2,78,30.1,77.9,30z M76.6,30.4
	l-1.4,1.2l-0.4-1.4L76.6,30.4C76.6,30.3,76.6,30.4,76.6,30.4z M63.5,10.4L63.5,10.4l-0.1-0.3c0-0.1,0-0.2,0.3-0.2
	c0.2,0.1,0.4,0.2,0.6,0.4c0.2,0.1,0.4,0.3,0.7,0.6c0,0.1,0.1,0.2,0,0.2c0,0-0.1,0.1-0.2,0.1c-0.1,0-0.2,0-0.3,0
	c-0.1,0-0.1,0-0.2,0.1c-0.7,0.8-1.4,1.8-2.1,2.9c0,0.1-0.1,0.1-0.1,0.1v0.1c0.1,0.1,0.1,0.3,0.1,0.3c0,0.1-0.1,0.1-0.3,0
	c-0.4-0.2-0.8-0.6-1.2-1c0-0.1,0-0.1,0-0.2c0-0.1,0.1-0.1,0.2-0.1H61c0.1,0,0.1,0,0.2-0.1C62.1,12.6,62.9,11.6,63.5,10.4
	C63.5,10.6,63.5,10.4,63.5,10.4 M61.1,8.3L61.1,8.3c0,0.1,0,0.1-0.1,0.1c0,0-0.1,0-0.2,0c-0.1,0-0.1,0-0.2,0c-0.7,0.8-1.2,1.8-1.9,3
	c-0.1,0.1-0.1,0.2,0,0.3c0,0.1,0.3,0.3,0.9,0.7c0.2,0,0.3,0,0.4,0l0.7-0.3c0.2,0,0.2,0,0.2,0.2c-0.2,0.4-0.6,0.8-0.9,1
	c-0.1,0-0.1,0-0.2-0.1c-0.1-0.1-0.2-0.2-0.2-0.2l-2.3-1.4c-0.1-0.1-0.1-0.1-0.1-0.2c0-0.1,0.2-0.1,0.3-0.1c0.1,0,0.1,0,0.2,0
	c0.1,0,0.1,0,0.1-0.1c0.7-0.9,1.2-1.8,1.7-2.8c0-0.1,0.1-0.2,0.1-0.3c0.1-0.1,0-0.2-0.2-0.4V7.4l0.1-0.1c0.6,0.2,1,0.6,1.3,0.8
	C61.1,8.2,61.1,8.2,61.1,8.3 M74.3,21.8C74.2,21.8,74.2,21.8,74.3,21.8c-0.4-0.8-0.9-1.6-1.4-2.3c-0.2-0.1-0.3-0.1-0.3,0.2v0.1
	c0,0.1,0,0.1-0.1,0.2c-0.7,0.6-1.3,1-2.1,1.3c-0.3,0.2-0.7,0.3-1,0.4c-0.1,0-0.1,0.1-0.2,0l-0.2-0.2c-0.1,0-0.1,0-0.1,0.1
	c0,0-0.1,0.1,0,0.1c0,0.2,0.1,0.4,0.3,0.8c0.1,0.2,0.3,0.4,0.6,0.7c0.1,0,0.2-0.1,0.2-0.1v-0.3c0-0.1,0-0.1,0.1-0.2
	c0.1-0.1,0.3-0.2,0.4-0.3c0.2-0.1,0.4-0.3,0.7-0.4c0.1-0.1,0.2-0.1,0.2,0c0.2,0.4,0.4,0.8,0.3,1c0,0.2-0.2,0.4-0.4,0.8
	c-0.2,0.2-0.3,0.3-0.3,0.4c-0.1,0.1-0.2,0.3-0.3,0.4c-0.1,0.2-0.1,0.4,0,0.7c0.1,0.2,0.2,0.3,0.6,0.6c0.1,0,0.2,0,0.3-0.1
	c0.1-0.1,0.1-0.1,0-0.2c-0.1-0.1-0.1-0.2-0.1-0.4c0.1-0.2,0.2-0.3,0.6-0.7c0.1-0.1,0.2-0.2,0.3-0.3c0.1-0.1,0.1-0.2,0.2-0.4
	c0-0.1,0-0.2,0-0.3c0-0.1,0-0.2-0.1-0.2c0-0.1,0-0.1,0.1,0c0.3,0.2,0.6,0.3,0.9,0.3s0.6-0.1,0.8-0.2c0.1-0.1,0.2-0.2,0.3-0.3
	c0-0.1,0.1-0.2,0.1-0.2C74.4,22.3,74.4,22.1,74.3,21.8z M73.6,22.1c-0.1,0.2-0.1,0.3-0.3,0.6c-0.1,0.1-0.3,0.2-0.6,0.2
	s-0.4-0.1-0.7-0.3c-0.2-0.2-0.3-0.4-0.4-0.8L73,21c0.2-0.1,0.4,0,0.7,0.6C73.6,21.7,73.6,21.9,73.6,22.1z M69.4,15.7
	c0-0.3,0.1-0.3,0.4-0.1l1.9,2.3c0.2,0.1,0.3,0.2,0.2,0.3c-0.1,0.3-0.3,0.6-0.6,0.8c-0.1,0-0.2,0-0.2-0.1c0-0.1,0-0.2,0.1-0.3
	c0.1-0.1,0.1-0.3,0-0.6l-0.8-1l-0.1-0.1c-0.1-0.1-0.2-0.1-0.3,0c-0.3,0.2-0.6,0.3-0.9,0.7c-0.1,0.1-0.1,0.2,0,0.2l0.4,0.6
	c0.1,0.1,0.2,0.2,0.3,0.1c0.1,0,0.2,0,0.3-0.1c0.1,0,0.1-0.1,0.2-0.1h0.1c0.1,0,0.1,0,0.1,0.1v0.1c-0.1,0.1-0.1,0.1-0.2,0.2
	c-0.3,0.3-0.8,0.7-1.3,1h-0.1v-0.1l0.3-0.4c0.1-0.1,0.1-0.2,0-0.3l-0.7-0.7c0,0-0.1,0-0.2,0l-1,0.9c-0.1,0.1-0.1,0.2,0,0.3
	c0.2,0.4,0.6,0.8,0.9,1.1c0.1,0.1,0.3,0.2,0.6,0.1l0.4-0.1h0.2c0.1,0,0.1,0.1-0.1,0.3c-0.3,0.3-0.7,0.4-1,0.4c-0.1,0-0.2,0-0.2-0.1
	c0-0.1,0-0.1-0.1-0.2c-0.7-0.8-1.2-1.4-1.7-1.9c-0.2-0.3-0.3-0.4-0.3-0.6c-0.1-0.1,0-0.2,0.2-0.2c0.1,0,0.2,0,0.2,0.1
	c0.1,0,0.1,0,0.2,0c0.6-0.3,1.4-1.1,2.9-2.2c0-0.1,0.1-0.1,0-0.2L69.4,15.7 M68.1,14c0-0.1-0.1-0.2-0.1-0.3c0-0.1-0.1-0.2-0.2-0.3
	l-2-1.8c-0.3,0-0.3,0.1-0.2,0.4c0,0.1,0,0.2,0,0.3c-0.9,1-1.7,1.9-2.3,2.7c-0.1,0.1-0.2,0.1-0.4,0.1c-0.2-0.1-0.3,0-0.3,0
	c0,0.2,0.1,0.4,0.4,0.7l1.4,1.3c0.2,0.2,0.6,0.4,0.9,0.4c0.3,0.1,0.6,0,0.9-0.1c0.3-0.1,0.4-0.3,0.7-0.6c0.1-0.3,0.1-0.6,0-0.9
	c0-0.2-0.1-0.3-0.2-0.6l-0.2-0.2l0.3,0.1c0.2,0.1,0.4,0.1,0.7,0.1c0.2,0,0.4-0.1,0.6-0.2c0.1-0.1,0.2-0.3,0.3-0.4
	C68.1,14.3,68.1,14.2,68.1,14z M65.4,16.6c-0.2,0.2-0.6,0.1-1-0.1l-0.6-0.6c-0.1-0.1-0.1-0.3,0-0.6l1-1.1c0.4,0.3,0.8,0.7,0.9,1
	C66.1,15.8,66,16.2,65.4,16.6z M66.9,14.7c-0.2,0.1-0.4,0.1-0.7,0.1c-0.3-0.1-0.7-0.3-0.9-0.8c0.3-0.3,0.7-0.8,1-1.1
	c0.1-0.1,0.2-0.1,0.3,0c0.4,0.3,0.7,0.7,0.7,0.9C67.3,14.1,67.2,14.3,66.9,14.7z M74.6,34.2L74.6,34.2c0.2-0.1,0.4-0.1,0.6-0.1
	c0.1,0.1,0.2,0.2,0.1,0.3l-0.4,0.4c-0.2,0.2-0.3,0.4-0.3,0.6c-0.1,0.4,0,0.8,0.2,1c0.3,0.3,0.6,0.3,0.8,0.3c0.1-0.1,0.2-0.2,0.3-0.3
	c0.1-0.1,0.2-0.3,0.2-0.4l0.3-1.2c0.1-0.3,0.3-0.6,0.6-0.7c0.4-0.2,0.9-0.3,1.2-0.1c0.6,0.3,0.9,0.8,0.9,1.4c0,0.4,0,0.7,0,0.8
	c0.1,0.1,0.2,0.3,0,0.4c-0.1,0.1-0.4,0.2-0.9,0.4c-0.2,0-0.2,0-0.2-0.1c0-0.1,0.1-0.2,0.2-0.4c0.2-0.2,0.3-0.4,0.3-0.6
	c0.1-0.7,0-1.1-0.4-1.2c-0.6-0.2-0.9,0.1-1.1,0.9l-0.2,1c-0.1,0.4-0.4,0.8-0.9,0.9c-0.4,0.1-0.9,0.1-1.2-0.1
	c-0.2-0.1-0.4-0.4-0.6-0.8c-0.2-0.4-0.2-1-0.2-1.7c0-0.3,0.1-0.6,0.2-0.7C74.3,34.3,74.4,34.3,74.6,34.2 M75.6,24l0.1,0.1
	c0.3,0.8,0.6,1.3,0.7,1.6c0.2,0.6,0.4,1.1,0.7,1.6c0,0.1,0.1,0.1,0,0.2c0,0,0,0.1-0.1,0.2c-0.3,0.3-0.7,0.4-1,0.6
	c-0.1,0-0.2-0.1-0.2-0.2c0.1-0.1,0.2-0.2,0.3-0.4c0.1-0.1,0.2-0.2,0.2-0.3c0-0.2,0-0.4-0.2-0.7c-0.1-0.1-0.2-0.1-0.3-0.1
	c-0.4,0.2-0.9,0.3-1.3,0.6c-0.1,0.1-0.3,0.1-0.4,0.2c-0.6,0.2-1,0.4-1.6,0.7v0.4c0,0.1,0,0.1-0.1,0.1h-0.1c-0.1-0.1-0.3-0.3-0.4-0.7
	c-0.1-0.3-0.2-0.6-0.3-0.9c0-0.2,0.1-0.2,0.2-0.2l0.3,0.2c0.1,0,0.1,0,0.2,0l3.3-1.3c0.1-0.1,0.1-0.2,0.1-0.2c0-0.2-0.1-0.3-0.2-0.4
	c-0.2-0.2-0.4-0.3-0.8-0.2c-0.2,0-0.3-0.2-0.3-0.3c0.3-0.2,0.7-0.3,1.1-0.3C75.5,24,75.5,24,75.6,24 M11,16.6c0-0.1,0.1-0.1,0.1-0.1
	s0.1,0,0.2,0c0.4,0.1,0.7,0.3,0.9,0.6 M11,16.6c-0.2,0.4-0.6,0.9-1,1.4c-0.2,0.2-0.6,0.7-1.1,1.3l-0.1,0.1c0,0.1,0,0.1,0,0.2
	C9,20,9.3,20.3,9.7,20.4c0.2,0,0.2-0.1,0.1-0.4c-0.2-0.2-0.3-0.6-0.2-0.8c0.1-0.1,0.1-0.3,0.3-0.4c0-0.1,0.1-0.1,0.3,0l2.9,2.1
	c0.1,0,0.1,0.1,0.1,0.2v0.3c0,0.1,0.1,0.1,0.2,0.1c0.4-0.3,0.8-0.9,0.9-1.4c0-0.1-0.1-0.1-0.2-0.1l-0.3,0.2c-1-0.7-2-1.4-3-2.2
	c-0.1-0.1-0.2-0.2-0.1-0.3c0.1-0.2,0.3-0.4,0.6-0.6c0.1,0,0.2,0,0.3,0c0.2,0,0.4,0.1,0.6,0.1c0.1-0.1,0.1-0.2,0.1-0.2 M17.2,10.4
	c-0.6,0.3-0.9,0.9-0.9,1.4c0,0.4,0.2,0.9,0.7,1.1c0.2,0.1,0.6,0.2,0.9,0.1l1.3-0.2c0.1,0,0.3,0,0.6,0c0.2,0,0.3,0.1,0.4,0.2
	c0.2,0.1,0.2,0.4,0.1,0.8c-0.1,0.3-0.4,0.6-0.8,0.7c-0.2,0.1-0.4,0-0.7,0l-0.6-0.2c-0.2,0-0.3,0-0.3,0.2c0.2,0.3,0.4,0.7,0.8,0.8
	c0.1,0.1,0.3,0,0.7-0.1c0.6-0.2,1-0.6,1.3-1c0.2-0.3,0.3-0.6,0.3-0.9c0.1-0.4-0.1-0.8-0.4-1.1c-0.3-0.3-0.7-0.4-1.2-0.3l-1,0.2
	c-0.8,0.2-1.2,0-1.3-0.6c0-0.4,0.2-0.8,0.9-1c0.1,0,0.3,0,0.7,0c0.2,0,0.3,0,0.4,0c0.1,0,0.1-0.1,0-0.3c-0.3-0.3-0.7-0.6-0.8-0.6
	c-0.2-0.1-0.3,0-0.3,0.2C17.9,10.1,17.7,10.2,17.2,10.4 M8.3,20.4l-0.8,1.3c0,0.2,0.1,0.3,0.2,0.2L8,21.8c0.1,0,0.1,0,0.2,0
	c1.1,0.6,2.1,1.2,3.1,1.9c0.1,0,0.1,0.1,0.1,0.2v0.2c0,0.1,0,0.1,0.1,0.2c0.1,0,0.1,0,0.2,0c0.3-0.4,0.6-0.9,0.8-1.3
	c0-0.2,0-0.2-0.1-0.3c-0.1,0-0.2,0-0.3,0.1c0,0-0.1,0.1-0.1,0h-0.1c-1.2-0.7-2.2-1.2-3.1-1.8c-0.1-0.1-0.1-0.2-0.1-0.4
	C8.6,20.3,8.4,20.3,8.3,20.4 M5.6,28.3c-0.3-0.1-0.7-0.1-0.9-0.1c-0.1,0-0.1,0.1-0.1,0.4l-0.9,2.9c0,0.3,0.1,0.4,0.3,0.2l0.1-0.1
	c0-0.1,0.1-0.1,0.2-0.1c1.8,0.4,3,0.8,3.4,1.1c0.1,0,0.1,0.1,0.1,0.1c0,0.1,0,0.2,0.1,0.2c0.1,0.1,0.2,0.1,0.3,0
	c0-0.1,0.1-0.3,0.2-0.7C8.8,31.8,9,31,9.2,29.9c0-0.1,0.1-0.2,0.1-0.2c0.1-0.1,0-0.1,0-0.2c-0.2-0.2-0.6-0.4-1-0.6
	c-0.3,0-0.4,0-0.3,0.1l0.1,0.1l0.3,0.3c0.2,0.2,0.2,0.3,0.2,0.6c-0.1,0.4-0.2,0.9-0.4,1.3c0,0.1-0.1,0.1-0.2,0.1l-1.3-0.3
	C6.6,31,6.4,31,6.4,30.9L6.7,30c0.1-0.1,0.1-0.2,0.3-0.2h0.6c0,0,0.1,0,0.1-0.1v-0.1C7,29.2,6.4,29,5.8,29c-0.1,0-0.1,0-0.1,0.1v0.1
	c0,0.1,0.1,0.1,0.2,0.2c0.1,0.1,0.2,0.1,0.3,0.2c0.1,0.1,0.1,0.2,0,0.3L6,30.8c0,0.1-0.1,0.1-0.2,0.1c-0.4-0.1-0.8-0.2-1.1-0.4
	c-0.2-0.1-0.2-0.2-0.2-0.4l0.3-1.2c0.1-0.2,0.2-0.3,0.4-0.3S5.6,28.3,5.6,28.3C5.7,28.5,5.7,28.4,5.6,28.3 M11.4,24.8
	c0-0.1-0.1-0.2-0.2-0.2c-0.1,0-0.1,0-0.1,0.1c0,0.2-0.1,0.2-0.3,0.3c-0.2,0-0.4,0-0.8-0.1c-0.2,0-0.3,0-0.4-0.1c-0.1,0-0.3,0-0.4,0
	c-0.1,0-0.2,0.1-0.3,0.1S8.7,25,8.6,25.1c0,0.1-0.1,0-0.1,0c0-0.3,0-0.7-0.2-1c-0.1-0.2-0.3-0.4-0.7-0.6c-0.2-0.1-0.6-0.1-0.8,0
	c-0.3,0.1-0.6,0.3-0.7,0.6c-0.4,0.8-0.8,1.6-1.1,2.4c0,0.2,0.1,0.3,0.3,0.1l0.1-0.1c0.1-0.1,0.1-0.1,0.2,0c1.1,0.4,2.2,0.9,3.2,1.6
	C9,28.1,9,28.2,9,28.3v0.3l0.1,0.1c0.1,0,0.1,0,0.1,0c0.2-0.2,0.3-0.4,0.4-0.7c0.1-0.2,0.2-0.6,0.2-0.9c-0.1-0.1-0.1-0.1-0.2-0.1
	l-0.2,0.2c-0.1,0.1-0.1,0.1-0.2,0c-0.4-0.2-0.9-0.3-1.3-0.6c-0.1,0-0.1-0.1-0.1-0.2c0.2-0.4,0.4-0.8,0.7-0.9c0.2-0.1,0.4-0.1,0.9,0
	c0.3,0,0.4,0.1,0.6,0.1c0.2,0,0.3,0,0.6,0c0.2-0.1,0.4-0.2,0.6-0.4C11.4,25.3,11.4,25.1,11.4,24.8z M8,25.8
	c-0.1,0.2-0.2,0.6-0.4,0.8l-1.3-0.7C6,25.8,6,25.4,6.3,25c0.1-0.2,0.3-0.3,0.6-0.3c0.2-0.1,0.4-0.1,0.6,0c0.2,0,0.3,0.2,0.4,0.4
	C8,25.2,8.1,25.5,8,25.8z M18.6,15.6c0-0.1-0.1-0.1-0.2,0c-0.1,0.1-0.1,0.1-0.2,0.1c-0.1,0-0.2,0-0.3,0c-0.7-0.2-1.4-0.6-2.6-1
	c-1.1-0.4-1.7-0.7-1.8-0.7s-0.2,0.1-0.2,0.2c-0.1,0.1-0.1,0.2,0,0.2c0.1,0.1,0.3,0.8,1,2.1c0.3,0.7,0.6,1.3,0.9,2
	c0,0.2-0.1,0.4-0.1,0.7c0,0.1,0.1,0.2,0.2,0.1c0.2-0.1,0.4-0.3,0.6-0.6l0,0c0,0,0-0.1,0.1-0.1c0.1-0.1,0.2-0.3,0.4-0.6
	c0-0.1,0-0.1-0.1-0.2c-0.1,0-0.2,0-0.3,0l0,0c-0.1,0-0.1,0.1-0.2,0.1c-0.1,0-0.1,0-0.2,0l0,0c-0.1-0.1-0.2-0.3-0.3-0.6
	c0-0.1,0-0.2,0.1-0.2c0.3-0.4,0.8-0.8,1.2-1.2c0.3,0.1,0.6,0.2,0.8,0.4c0,0.1,0.1,0.1,0,0.2c-0.1,0.1-0.1,0.2-0.1,0.3
	c0,0.2,0.1,0.2,0.2,0.2c0.6-0.3,0.9-0.8,1.2-1.3C18.6,15.7,18.6,15.7,18.6,15.6z M14.7,16.9l-0.8-1.8c0-0.1,0-0.1,0.1-0.1l1.8,0.8
	L14.7,16.9z M7.9,36.1C8,36,8,36,7.9,35.9c-1.8-1.1-3.1-1.9-4-2.4c-0.1-0.1-0.2-0.2-0.2-0.4c-0.1-0.3-0.2-0.3-0.4-0.1
	C3.1,33.3,3,33.8,3,34.2c0,0.1,0,0.2,0.1,0.2s0.1,0,0.2-0.1c0.1-0.1,0.1-0.2,0.2-0.2c0.1,0,0.2,0,0.3,0l0,0c0.8,0.4,1.6,0.9,2.2,1.3
	c0.1,0,0.1,0.1,0.1,0.1s0,0.1-0.1,0.1c-1.1,0.3-2,0.6-2.9,0.7c-0.1,0-0.1-0.1-0.1-0.1s0-0.1,0-0.2c0-0.1-0.1-0.2-0.2-0.2
	c-0.1,0-0.2,0.1-0.2,0.2c-0.1,0.2-0.1,0.4-0.1,0.8c0,0.1,0,0.4,0,0.8c0,0.1,0.1,0.2,0.2,0.2c0.1,0,0.1-0.1,0.2-0.2
	c0.1-0.1,0.2-0.2,0.4-0.3C5,36.9,6.4,36.5,7.9,36.1 M2.8,44.9c0,0.1,0.1,0.2,0.3,0.2C5,45,6.3,44.8,6.9,44.5c0,0,0.1,0,0.1-0.1
	c0,0,0-0.1,0-0.2C7.1,44,7.2,44,7.4,44.1c0.1,0.3,0.2,1.3,0.4,3.1C8,47.4,8,47.7,8,47.7C7.8,47.9,7.4,48,7,48l0,0
	c-0.2-0.1-0.2-0.2-0.1-0.3C7,47.7,7,47.5,7,47.5c0.2-0.1,0.3-0.3,0.3-0.6c0-0.4-0.1-0.9-0.1-1.2c0-0.1-0.1-0.2-0.2-0.3l0,0l-1.4,0.1
	l0.1,1.1c0,0.1,0.1,0.2,0.2,0.2c0.3,0,0.4,0,0.6,0.1c0.1,0.1,0,0.2-0.1,0.2c-0.1,0.1-0.4,0.2-0.8,0.2c-0.4,0-0.8,0.1-1.1,0
	c-0.1,0-0.2-0.1-0.1-0.2L4.8,47C5,46.9,5,46.8,5,46.8l-0.1-0.9c0-0.1-0.1-0.1-0.2-0.1L3.1,46C3,46,3,46.1,3,46.2
	c-0.1,0.3-0.2,0.4-0.4,0.2c-0.1-0.2-0.2-0.8-0.2-1.6C2.4,44.5,2.6,44.5,2.8,44.9 M8.8,52c-0.1,0.2-0.3,0.4-0.6,0.6
	c-0.2,0.1-0.6,0.1-0.8,0c-0.1,0-0.3-0.1-0.4-0.2c-0.1-0.1-0.2-0.2-0.3-0.3c-0.1,0-0.1,0-0.1,0c0,0.1,0,0.2,0,0.3
	c0,0.1,0,0.2-0.1,0.3c-0.1,0.1-0.2,0.2-0.3,0.3c-0.1,0.1-0.2,0.1-0.3,0.2c-0.3,0.2-0.6,0.3-0.7,0.4C5,53.8,5,54,5.1,54.1
	c0,0.1,0,0.1,0,0.2c-0.1,0-0.2,0-0.3,0c-0.2-0.2-0.3-0.4-0.3-0.7s0-0.4,0.2-0.7c0.1-0.1,0.2-0.2,0.4-0.3c0,0,0.2-0.1,0.4-0.3
	c0.3-0.2,0.6-0.4,0.7-0.7c0.1-0.2,0.1-0.7-0.1-1.1c0-0.1-0.1-0.1-0.2-0.1c-0.4,0.1-0.9,0.2-1.4,0.4c-0.1,0-0.1,0.1-0.1,0.2v0.3
	c0,0.1-0.1,0.1-0.2,0.1c-0.2-0.2-0.3-0.6-0.4-0.8c-0.1-0.3-0.1-0.6-0.1-0.8c0,0,0-0.1,0.1-0.1s0.1,0,0.2,0l0.2,0.2
	c0.1,0,0.1,0.1,0.2,0c1-0.1,1.9-0.4,2.9-0.8c0.2-0.1,0.4-0.1,0.7-0.2C8,49.1,8,49,8.1,49v-0.2c0.1-0.3,0.2-0.3,0.3-0.1
	c0.3,0.9,0.6,1.8,0.8,2.7C9,51.3,8.9,51.7,8.8,52z M8.3,50.5c-0.1-0.6-0.2-0.9-0.4-0.8l-1.6,0.3c0,0.3,0.1,0.7,0.2,0.9
	c0.1,0.1,0.2,0.2,0.3,0.3c0.1,0.1,0.2,0.1,0.2,0.1c0.2,0.1,0.4,0.1,0.6,0C7.9,51.3,8,51.2,8.1,51C8.3,51,8.3,50.8,8.3,50.5z
	 M8.9,53.2c0,0.1,0,0.1-0.1,0.2c-0.8,0.3-1.4,0.7-1.9,1C6.2,54.8,5.8,55,5.4,55c-0.1,0-0.1,0-0.2,0c-0.1-0.1-0.1-0.1-0.2-0.1
	c-0.2,0-0.2,0-0.2,0.2c0,0.1,0.1,0.3,0.2,0.7c0.2,0.6,0.7,1.3,1.1,2.3c0,0.1,0,0.2,0,0.3c0,0.1,0.1,0.1,0.2,0.1c0.2,0,0.3,0,0.6,0
	c0.2,0,0.3-0.1,0.6-0.2C7.7,58.2,7.8,58,7.7,58H7.4H7c0,0,0,0-0.1,0c-0.2,0-0.3-0.1-0.4-0.2c-0.2-0.4-0.4-0.9-0.6-1.3
	c0-0.1,0-0.2,0.1-0.2l1.2-0.7c0.1,0,0.2,0,0.3,0L8,56.4c0,0.1,0,0.2-0.1,0.3l-0.4,0.3v0.1c0,0.1,0,0.1,0.1,0.1
	c0.6-0.1,1.1-0.3,1.6-0.7c0.1-0.1,0.2-0.1,0.2-0.2l0.1-0.1c0,0,0-0.1-0.1-0.1H9.2c0,0-0.1,0-0.2,0c-0.2,0-0.3,0.1-0.3,0.1
	c-0.1,0-0.2-0.1-0.2-0.2l-0.3-0.8c0-0.1,0-0.2,0.1-0.2c0.3-0.2,0.8-0.3,1.1-0.4c0.1-0.1,0.2,0,0.3,0l0.1,0.1l0.6,1.1
	c0,0.2,0,0.4-0.1,0.6c-0.1,0.1-0.2,0.2-0.1,0.3c0,0.1,0.1,0.1,0.2,0.1c0.3-0.1,0.6-0.3,0.8-0.6c0.1-0.1,0-0.2-0.2-0.4l-1.3-2.8
	c-0.2-0.3-0.4-0.2-0.4,0L8.9,53.2 M11,57.3c0,0.1,0,0.1,0,0.1s0,0-0.1,0.1c-1.1,0.8-2.2,1.4-3.1,1.9c-0.1,0.1-0.3,0-0.6-0.1
	c-0.2,0-0.3,0-0.2,0.2l0.9,1.3c0.2,0.1,0.3,0,0.3-0.1l-0.1-0.3c0-0.1,0-0.1,0.1-0.2c1-0.8,2.1-1.3,3.2-2c0.1,0,0.1,0,0.2,0l0.2,0.1
	c0.1,0,0.1,0,0.2,0c0,0,0.1-0.1,0.1-0.2c-0.2-0.6-0.4-1-0.8-1.3c-0.1-0.1-0.2-0.1-0.3-0.1C11,57,11,57.1,11,57.3 M12.9,59.4
	c-0.3-0.2-0.4-0.2-0.4,0.1v0.2c0,0.1,0,0.1,0,0.2c-1.4,1.2-2.4,2-3,2.2c-0.1,0-0.1,0-0.2,0C9.1,62.1,9,62.1,9,62.1
	c-0.2,0-0.2,0.1-0.2,0.2c0,0.1,0.1,0.3,0.3,0.6c0.3,0.4,0.9,1.2,1.6,2c0.1,0.1,0.1,0.2,0.1,0.2c0,0.1,0.1,0.1,0.2,0.1
	c0.3,0,0.7-0.2,1-0.4c0.2-0.2,0.2-0.3,0.1-0.3h-0.2l-0.4,0.1c-0.2,0-0.4,0-0.6-0.1c-0.3-0.3-0.7-0.8-0.9-1.2c0-0.1,0-0.2,0.1-0.3
	l1-0.9c0.1-0.1,0.2-0.1,0.3,0l0.6,0.8c0.1,0.1,0.1,0.2,0,0.3l-0.3,0.4v0.1l0.1,0.1c0.6-0.2,1-0.6,1.4-1c0.1-0.1,0.1-0.1,0.2-0.2
	v-0.1l-0.1-0.1h-0.1c0,0-0.1,0-0.2,0.1c-0.1,0.1-0.3,0.1-0.3,0.1c-0.1,0-0.2,0-0.3-0.2l-0.4-0.7c-0.1-0.1-0.1-0.2,0-0.2
	c0.3-0.2,0.7-0.4,1-0.7c0.1-0.1,0.2-0.1,0.3,0c0,0,0.1,0,0.1,0.1l0.8,1c0.1,0.2,0.1,0.4,0,0.6C14,62.5,14,62.8,14,62.8
	c0,0.1,0.1,0.1,0.3,0.1c0.2-0.2,0.4-0.4,0.7-0.8c0-0.1,0-0.2-0.2-0.3L12.9,59.4 M74.4,43.8c0.2-0.1,0.3-0.1,0.4,0.1
	c0,0.1,0,0.2,0.1,0.3c1.4,0.3,2.9,0.6,4.3,0.7c0,0,0.1,0,0.1,0.1v0.1c0,0.1-0.6,0.6-1.6,1.1c-0.7,0.4-1.7,1-3,1.8l3.1,0.4
	c0.2,0,0.4-0.1,0.4-0.2c0.2-0.2,0.3-0.2,0.4,0.1c0,0.3,0,0.7-0.1,1c-0.1,0.1-0.1,0.2-0.2,0.2c-0.1,0-0.1-0.1-0.2-0.2
	c0-0.1,0-0.2-0.1-0.2L78.1,49c-1.2-0.2-2.4-0.4-3.8-0.6c-0.1,0-0.1,0-0.2,0.1c-0.2,0.3-0.3,0.3-0.4,0c0-0.3,0-0.7,0.1-1.1
	c1.6-0.8,2.9-1.7,4.1-2.4c-1-0.2-1.9-0.3-2.9-0.4c-0.1,0-0.2,0-0.2,0.1L74.5,45c-0.2,0-0.3,0-0.3-0.1C74.2,44.5,74.2,44.1,74.4,43.8
	 M73.4,49.2c-0.2,0.6-0.3,1-0.4,1.6c0,0.2,0.1,0.2,0.2,0.3c0.1,0,0.2,0,0.3-0.2l0.1-0.1h0.1c1.3,0.3,2.6,0.6,3.7,0.9
	c0.1,0,0.1,0.1,0.1,0.1c0,0.1,0.1,0.2,0.1,0.3c0,0.1,0.1,0.1,0.1,0.1c0.1,0,0.1,0,0.2-0.1c0.1-0.2,0.2-0.6,0.2-0.8s0.1-0.4,0.1-0.8
	c-0.1-0.2-0.2-0.3-0.3-0.2l-0.2,0.2c0,0,0,0-0.1,0.1h-0.1c-1.2-0.2-2.4-0.6-3.7-1c-0.1,0-0.1-0.1-0.2-0.1l-0.1-0.2
	C73.5,49.2,73.4,49.2,73.4,49.2C73.5,49.1,73.5,49.1,73.4,49.2 M72.2,52.7c-0.2,0.4-0.4,0.9-0.6,1.6c0,0.1,0,0.1,0.1,0.1h0.1
	c0.2-0.2,0.3-0.3,0.4-0.2c0.1,0,0.2,0.1,0.3,0.1c1.1,0.3,2.2,0.8,3.2,1.2c0.1,0,0.1,0,0.1,0.1c0,0,0,0.1,0,0.2
	c0,0.2,0.1,0.3,0.2,0.3c0.1,0,0.2,0,0.2-0.1l1-2.7c0-0.1,0.1-0.2,0.2-0.3c0.1-0.1,0.1-0.2,0.1-0.2c-0.3-0.3-0.7-0.6-1.2-0.8
	c-0.2,0-0.3,0.1-0.2,0.3l0.4,0.6c0,0.1,0.1,0.3,0.1,0.4c-0.2,0.7-0.4,1-0.4,1c-0.1,0.1-0.2,0.1-0.3,0.1c-1.3-0.4-2.6-0.9-3.4-1.4
	c0,0-0.1-0.1-0.1-0.2c0-0.1,0-0.2,0-0.2 M67.9,61.4l0.8-1c0.2-0.1,0.3-0.2,0.6-0.1c0.2,0,0.3,0,0.4,0c0.1-0.1,0.1-0.1,0-0.3
	c-0.2-0.2-0.6-0.3-0.9-0.4c-0.1,0-0.2,0.1-0.3,0.3l-1.9,2.4c-0.1,0.3-0.1,0.4,0.2,0.4l0.2-0.1c0.1,0,0.1,0,0.2,0
	c1.6,1.1,2.6,1.9,3,2.3c0.1,0.1,0.1,0.1,0,0.2c0,0.1-0.1,0.2,0,0.3c0,0.2,0.1,0.2,0.3,0.1c0.1,0,0.2-0.2,0.4-0.6
	c0.4-0.4,0.9-1.2,1.6-2.1c0.1-0.1,0.1-0.1,0.2-0.2c0.1,0,0.1-0.1,0-0.2c-0.1-0.3-0.3-0.7-0.8-0.9c-0.2-0.1-0.4-0.1-0.4,0v0.2
	l0.2,0.4c0.1,0.2,0.1,0.4,0,0.6c-0.2,0.4-0.6,0.8-0.9,1.2c-0.1,0-0.2,0.1-0.3,0l-1.1-0.8c-0.1-0.1-0.1-0.2-0.1-0.2l0.6-0.8
	c0.1-0.1,0.2-0.1,0.3-0.1l0.4,0.2h0.1v-0.1c-0.3-0.4-0.8-0.9-1.3-1.1c-0.1-0.1-0.2-0.1-0.3-0.1c-0.1,0-0.1,0-0.1,0l-0.1,0.1v0.1
	l0.1,0.1c0.1,0.1,0.2,0.2,0.2,0.3c0,0.1,0,0.2-0.1,0.3l-0.6,0.7c-0.1,0.1-0.1,0.1-0.2,0c-0.3-0.2-0.7-0.6-0.9-0.8
	c-0.1-0.1-0.2-0.2-0.1-0.3C67.9,61.5,67.9,61.5,67.9,61.4 M75.8,57.1c0,0.3,0,0.6-0.2,0.7c-0.1,0.2-0.3,0.3-0.7,0.3
	c-0.1,0-0.3,0-0.6,0c0,0-0.2,0-0.6-0.1c-0.4-0.1-0.8-0.1-0.9,0c-0.2,0.1-0.6,0.4-0.8,0.9c0,0.1,0,0.2,0.1,0.2
	c0.2,0.1,0.4,0.2,0.8,0.4c0.2,0.1,0.3,0.2,0.6,0.2c0.1,0,0.1,0,0.2,0l0.2-0.2c0.1,0,0.2,0,0.2,0.1c-0.1,0.3-0.1,0.6-0.3,0.9
	c-0.1,0.3-0.3,0.6-0.6,0.7h-0.1c-0.1,0-0.1,0-0.1-0.1v-0.3c0-0.1-0.1-0.1-0.1-0.2c-0.3-0.2-0.6-0.4-0.9-0.7
	c-0.7-0.4-1.4-0.8-2.2-1.1c-0.1-0.1-0.2-0.1-0.2,0l-0.1,0.1c-0.2,0.1-0.3,0.1-0.3-0.2c0.4-0.9,0.8-1.7,1.3-2.4l0,0
	c0.2-0.2,0.4-0.4,0.8-0.6c0.1,0,0.2,0,0.3,0c0.2,0,0.3,0,0.6,0.1c0.2,0.1,0.4,0.3,0.6,0.6c0.1,0.3,0.2,0.7,0.1,1c0,0.1,0,0.1,0.1,0
	c0-0.1,0.1-0.2,0.2-0.2c0.1,0,0.1-0.1,0.3-0.1c0.1,0,0.3,0,0.4,0c0.1,0,0.2,0,0.4,0.1c0.3,0.1,0.7,0.2,0.9,0.1
	c0.2,0,0.3-0.1,0.3-0.3c0-0.1,0.1-0.1,0.2-0.1C75.6,56.9,75.8,57,75.8,57.1z M72.2,57.2c-0.1-0.2-0.2-0.3-0.4-0.4
	c-0.2-0.1-0.4-0.1-0.6,0c-0.2,0-0.4,0.2-0.6,0.3c-0.3,0.4-0.4,0.8-0.2,0.9l1.3,0.8c0.2-0.2,0.3-0.6,0.4-0.8
	C72.3,57.7,72.3,57.4,72.2,57.2z M69.2,66.6c0,0.1,0,0.2,0,0.3c-0.1,0.3-0.2,0.7-0.6,0.9l-1.4,1.4c-0.2,0.3-0.4,0.4-0.7,0.4
	c-0.1,0-0.1-0.1,0-0.3c0.1-0.2,0.1-0.3,0-0.4c-0.7-0.8-1.6-1.7-2.6-2.7c-0.1-0.1-0.2-0.1-0.3,0c-0.1,0-0.2,0.1-0.2,0.1
	c-0.1,0-0.2-0.1-0.1-0.2c0,0,0,0,0-0.1l2-2c0.1-0.1,0.2-0.2,0.3-0.2c0.1,0,0.2-0.1,0.3-0.1c0.1,0,0.2,0,0.3,0s0.2,0,0.3,0.1
	c0.2,0.1,0.3,0.2,0.4,0.3c0.1,0.2,0.2,0.3,0.2,0.7c0,0.1,0,0.3-0.1,0.7l-0.1,0.3l0.2-0.1c0.2-0.1,0.3-0.2,0.6-0.2
	c0.3-0.1,0.7-0.1,1,0.1c0.2,0.1,0.4,0.3,0.6,0.7C69.2,66.2,69.2,66.4,69.2,66.6z M66.4,65.6c0.1-0.2,0.1-0.4,0-0.7
	c-0.2-0.4-0.6-0.6-0.9-0.6s-0.7,0.2-1,0.7c-0.1,0.1-0.1,0.2,0,0.3c0.3,0.4,0.7,0.8,1,1.1C66,66.3,66.2,66,66.4,65.6z M68.2,66.5
	c-0.3-0.6-0.7-0.8-1.2-0.4c-0.4,0.1-0.8,0.4-1.1,0.9l1,1.1c0.2,0.2,0.3,0.2,0.6,0l0.6-0.6C68.4,67.1,68.4,66.8,68.2,66.5z
	 M41.9,79.1c0-0.1-0.1-0.1-0.2-0.1c-0.2,0-0.3,0-0.4-0.1c-0.1-0.1-0.2-0.4-0.2-0.8c0-0.2-0.1-0.3-0.1-0.4c-0.1-0.1-0.1-0.3-0.2-0.3
	c-0.1-0.1-0.2-0.2-0.2-0.2c-0.1,0-0.2-0.1-0.3-0.1c-0.1,0-0.1,0,0-0.1c0.2-0.1,0.3-0.1,0.4-0.2c0.1-0.1,0.2-0.2,0.3-0.3
	c0.2-0.2,0.2-0.6,0.2-0.8c0-0.3-0.1-0.6-0.3-0.8c-0.2-0.2-0.4-0.3-0.8-0.4c-0.9-0.1-1.9-0.1-2.8-0.1c-0.2,0.1-0.2,0.2,0,0.4l0.1,0.1
	c0.1,0,0.1,0.1,0.1,0.2c0,0.2,0,0.4,0,0.7c0,1,0,2-0.2,3c0,0.1,0,0.2-0.1,0.2L36.8,79c0,0,0,0.1,0,0.2c0,0.1,0,0.1,0.1,0.1
	c0.2,0.1,0.6,0.1,0.9,0.1c0.3,0,0.7,0,0.9-0.1c0.1-0.1,0.1-0.2,0-0.3l-0.3-0.1c-0.1,0-0.1-0.1-0.1-0.2c0-0.6,0-1,0-1.4
	c0-0.1,0-0.2,0.2-0.2c0.6,0,0.9,0.1,1.1,0.2c0.1,0.1,0.3,0.4,0.4,0.9c0.1,0.3,0.1,0.4,0.1,0.6c0.1,0.2,0.1,0.3,0.2,0.6
	c0.1,0.2,0.3,0.3,0.7,0.4c0.2,0,0.4,0,0.8-0.1C41.9,79.3,41.9,79.2,41.9,79.1z M40.1,76.1c-0.1,0.1-0.1,0.1-0.2,0.2
	c-0.1,0.1-0.2,0.1-0.4,0.2c-0.3,0-0.7,0-1,0l0.1-1.6c0-0.3,0.3-0.3,0.9-0.2c0.2,0,0.4,0.1,0.6,0.3c0.1,0.2,0.2,0.3,0.2,0.6
	C40.3,75.8,40.2,75.9,40.1,76.1z M43,76.8c-0.3-0.1-0.6-0.3-0.7-0.6c-0.2-0.4-0.2-0.9,0-1.3c0.3-0.6,0.9-0.8,1.6-0.8
	c0.4,0,0.7,0,0.8,0c0.2-0.1,0.3-0.1,0.4,0c0.1,0.1,0.2,0.4,0.4,1c0,0.2-0.1,0.2-0.1,0.2c-0.1,0-0.2-0.1-0.4-0.2
	c-0.2-0.2-0.4-0.3-0.6-0.4c-0.7-0.1-1.1,0-1.3,0.3c-0.2,0.6,0.1,0.9,0.9,1.2l1,0.3c0.6,0.1,0.8,0.4,0.9,0.9c0.1,0.6,0,0.9-0.2,1.2
	c-0.2,0.2-0.4,0.4-0.8,0.6c-0.4,0.1-1,0.2-1.7,0.1c-0.3-0.1-0.6-0.2-0.7-0.3c-0.2-0.3-0.3-0.7-0.2-1.1c0.1-0.1,0.2-0.2,0.4,0
	l0.4,0.4c0.2,0.2,0.3,0.3,0.6,0.4c0.4,0.1,0.8,0.1,1-0.1c0.3-0.3,0.4-0.6,0.3-0.8c0-0.1-0.1-0.3-0.3-0.4c-0.1-0.1-0.3-0.2-0.4-0.2
	L43,76.8 M46,74.1c0-0.1,0-0.2,0.2-0.3c0.4-0.1,1-0.2,1.6-0.2c0.1,0,0.1,0.1,0.1,0.1c0,0.1,0,0.1-0.1,0.2l-0.2,0.2
	c0,0.1-0.1,0.1,0,0.2c0.1,1.2,0.3,2.4,0.7,3.7c0,0.1,0.1,0.1,0.1,0.1h0.3c0.1,0.1,0.1,0.2,0,0.3l-1.6,0.3c-0.2,0-0.2-0.1-0.1-0.3
	c0.2-0.1,0.3-0.3,0.3-0.4c-0.1-1-0.3-2.2-0.7-3.7c0-0.1,0-0.1,0-0.1l-0.1-0.1C46.2,74.2,46.1,74.2,46,74.1 M50,73.5
	c-0.2,0-0.3,0.1-0.6,0.1c-0.2,0.1-0.3,0.4-0.3,0.8c-0.1,0.3-0.2,0.3-0.4,0.2c-0.1-0.3-0.2-0.7-0.2-1.2c0-0.1,0-0.1,0.1-0.2
	c0,0,0.1-0.1,0.1,0c0.9-0.2,1.4-0.3,1.7-0.4c0.7-0.2,1.2-0.3,1.7-0.6c0.1,0,0.1,0,0.2,0c0,0,0.1,0.1,0.2,0.1c0.2,0.3,0.3,0.7,0.4,1
	c0,0.1-0.1,0.1-0.2,0.2c-0.1-0.1-0.2-0.2-0.3-0.4c-0.1-0.1-0.2-0.2-0.3-0.2c-0.2,0-0.4,0-0.8,0.1c-0.1,0-0.1,0.1-0.1,0.3
	c0.1,0.4,0.2,1,0.3,1.4c0,0.2,0.1,0.3,0.1,0.6c0.2,0.6,0.3,1.1,0.6,1.7l0.4,0.1c0.1,0,0.1,0.1,0.1,0.1v0.1c-0.1,0.1-0.4,0.2-0.8,0.3
	c-0.3,0.1-0.7,0.1-0.9,0.2c-0.2-0.1-0.2-0.1-0.1-0.2l0.2-0.2c0-0.1,0-0.1,0-0.2l-1-3.6C50.1,73.5,50.1,73.4,50,73.5 M28.2,71.8
	c0.4,0.1,0.7,0.2,0.8,0.2c0.3,0.1,0.6,0.2,0.7,0.3c0.1,0.1,0.2,0.2,0.2,0.2c0,0.1-0.1,0.1-0.2,0.1c-0.1,0-0.2,0-0.2,0
	c-0.1,0-0.1,0-0.1,0.1c-0.1,0.9-0.1,1.9,0.1,3.1c0,0.1,0,0.1,0.1,0.1c0,0,0.1,0,0.1-0.1c0.7-0.6,1.2-1.2,1.9-2l0,0
	c0.1-0.1,0.1-0.2,0.1-0.3c0,0-0.1-0.1-0.2-0.2c-0.1-0.1-0.1-0.2-0.1-0.3c0-0.1,0.1-0.1,0.2-0.1c0.4,0.1,0.9,0.2,1.2,0.4
	c0.2,0.2,0.1,0.3-0.1,0.3c-0.2,0-0.3,0-0.4,0.1c-0.8,0.8-1.8,2-3.2,3.6c-0.1,0.1-0.2,0.1-0.2,0c-0.1-1.4-0.2-3-0.2-4.8
	c0-0.2-0.1-0.3-0.2-0.4c-0.1-0.1-0.2-0.2-0.1-0.2C28,71.9,28.1,71.8,28.2,71.8 M27.9,71.8c0,0.1,0,0.1,0,0.2c0,0.1-0.1,0.1-0.2,0.1
	h-0.2c-0.1,0-0.1,0.1-0.2,0.1c-0.7,1.1-1.1,2.2-1.6,3.4v0.1c0,0,0,0.1,0.1,0.1l0.2,0.2c0.1,0.1,0,0.2-0.2,0.3
	c-0.2-0.1-0.4-0.2-0.7-0.2c-0.2-0.1-0.6-0.2-0.8-0.4c-0.1-0.1-0.1-0.2-0.1-0.2l0.1-0.1c0.1,0,0.2,0,0.3,0c0.1,0,0.1-0.1,0.2-0.1
	c0.6-1,1-2.1,1.6-3.3c0-0.1,0-0.1,0-0.1c0-0.1,0-0.1-0.1-0.1c-0.1-0.1-0.2-0.2-0.2-0.3c0-0.1,0.1-0.1,0.3-0.1
	C26.9,71.2,27.3,71.4,27.9,71.8 M24.8,71.1c0.1-0.1,0.1-0.2,0-0.3l-0.2-0.2c0-0.2,0.1-0.3,0.2-0.2c0.4,0.1,0.8,0.3,1.1,0.7
	c0.1,0.2,0,0.3-0.2,0.3c-0.1-0.1-0.2-0.1-0.3,0c-0.8,1.2-1.6,2.4-2.3,3.8c0,0-0.1,0.1-0.1,0c0,0-0.1,0-0.1-0.1
	c-0.1-0.1-0.3-0.7-0.4-1.9c-0.1-0.8-0.3-1.9-0.6-3.4l-1.6,2.8c-0.1,0.2,0,0.4,0.1,0.4c0.1,0.2,0,0.3-0.3,0.3
	c-0.3-0.1-0.6-0.2-0.9-0.4c-0.1-0.1-0.2-0.2-0.1-0.3c0-0.1,0.1-0.1,0.2-0.1c0.1,0,0.2,0,0.2,0c0.1,0,0.1,0,0.1-0.1
	c0.7-1,1.3-2.1,1.9-3.2c0-0.1,0-0.1-0.1-0.2c-0.2-0.3-0.1-0.4,0.2-0.4c0.3,0.1,0.7,0.3,0.9,0.6c0.2,1.7,0.4,3.2,0.8,4.7
	C23.9,72.8,24.3,72,24.8,71.1 M33.1,73.9c-0.2-0.2-0.1-0.3,0.2-0.3l3,0.6c0.2,0,0.4,0,0.4,0.1c0.1,0.3,0.1,0.7,0,1
	c-0.1,0.1-0.2,0.1-0.2,0.1c-0.1,0-0.1-0.2-0.2-0.3c0-0.1-0.1-0.3-0.3-0.4l-1.2-0.2h-0.1c-0.1,0-0.2,0.1-0.2,0.3
	c-0.1,0.3-0.2,0.7-0.3,1.1c0,0.1,0,0.2,0.1,0.2l0.8,0.1c0.1,0,0.2,0,0.3-0.1c0.1,0,0.1-0.2,0.2-0.3c0-0.1,0.1-0.1,0.1-0.2
	c0,0,0-0.1,0.1-0.1c0.1,0,0.1,0,0.1,0l0.1,0.1c0,0.1,0,0.2,0,0.3c0,0.6-0.1,1.1-0.4,1.7c0,0,0,0-0.1,0c-0.1,0-0.1-0.1-0.1-0.1v-0.6
	c0-0.1-0.1-0.2-0.2-0.3l-1-0.1c-0.1,0-0.1,0.1-0.2,0.2l-0.2,1.3c0,0.1,0.1,0.2,0.1,0.2c0.4,0.1,1,0.2,1.4,0.3c0.2,0,0.3,0,0.4-0.2
	l0,0l0.3-0.3l0.1-0.1c0.1-0.1,0.2,0,0.2,0.3c0,0.2-0.1,0.4-0.1,0.6c-0.1,0.2-0.2,0.3-0.3,0.4c-0.1,0.1-0.1,0.1-0.2,0.1
	c-0.1-0.1-0.1-0.1-0.2-0.1c-1.1-0.2-2-0.3-2.6-0.4c-0.3-0.1-0.6-0.1-0.7-0.2c-0.1-0.1-0.1-0.2,0-0.3c0.1-0.1,0.1-0.1,0.2-0.1
	c0.1,0,0.1,0,0.1-0.1c0.1-0.3,0.2-0.9,0.3-1.6c0.1-0.6,0.2-1.3,0.3-2.1c0-0.1,0-0.1-0.1-0.2L33.1,73.9 M18.9,66.1
	c0.1,0.2,0.1,0.3-0.1,0.3c-0.2-0.1-0.3-0.1-0.6,0c-0.4,0.4-1,0.9-1.3,1.4c0,0,0,0-0.1,0.1c-0.2,0.3-0.6,0.7-0.8,1
	c-0.1,0.1-0.1,0.3-0.1,0.4c0.1,0.3,0.2,0.6,0.4,0.8c0.2,0.2,0.6,0.3,0.9,0.4c0.3,0,0.6-0.1,0.8-0.3l0,0l0,0c0.7-0.7,1.3-1.4,1.9-2.2
	c0,0,0.1-0.1,0.1-0.2s-0.1-0.2-0.1-0.3c0-0.1,0-0.1,0-0.1s0.1-0.1,0.2-0.1c0.3,0.1,0.7,0.4,1,0.9c0.1,0.1,0,0.2,0,0.2
	c-0.1,0-0.1,0-0.1,0s-0.1,0-0.2-0.1c-0.1,0-0.2,0-0.3,0.1l-1.8,2.1c-0.1,0.1-0.1,0.1-0.2,0.2c0,0,0,0-0.1,0.1
	c-0.2,0.1-0.3,0.2-0.6,0.2s-0.3,0.1-0.4,0.1c-0.1,0-0.2,0-0.4-0.1c-0.2-0.1-0.4-0.2-0.7-0.3c-0.2-0.1-0.3-0.3-0.6-0.4
	c-0.3-0.3-0.4-0.7-0.6-1c0-0.4,0.1-0.9,0.3-1.2l1.9-2.2c0.1-0.1,0.1-0.2,0.1-0.2c-0.1-0.1-0.1-0.2-0.1-0.3c0-0.1,0.1-0.1,0.2-0.1
	C18.1,65.4,18.6,65.8,18.9,66.1 M60.3,69.2c-0.1-0.1-0.2-0.1-0.3-0.1c-0.2,0-0.4,0.1-0.7,0.3c-0.1,0.1-0.1,0.2,0,0.3
	c0.2,0.4,0.4,0.9,0.8,1.3c0.1,0.1,0.2,0.3,0.3,0.4c0.3,0.6,0.7,1,1,1.4h0.4c0.1,0,0.1,0,0.1,0.1v0.1c-0.1,0.2-0.3,0.3-0.6,0.6
	c-0.2,0.2-0.6,0.3-0.9,0.4c-0.2,0-0.2-0.1-0.2-0.2l0.2-0.3c0-0.1,0-0.1,0-0.2l-1.9-3.2c-0.1-0.1-0.2-0.1-0.3-0.1
	c-0.2,0.1-0.3,0.2-0.4,0.3c-0.2,0.2-0.2,0.4-0.1,0.8c0,0.3-0.1,0.4-0.3,0.3c-0.2-0.2-0.4-0.7-0.6-1.1c0-0.1,0-0.1,0-0.2l0.1-0.1
	c0.8-0.4,1.3-0.7,1.6-0.9c0.6-0.3,1.1-0.7,1.4-0.9c0.1-0.1,0.1-0.1,0.2-0.1c0.1,0,0.1,0,0.2,0.1c0.3,0.3,0.6,0.6,0.7,0.9
	c0,0.1-0.1,0.2-0.2,0.2C60.7,69.4,60.4,69.4,60.3,69.2 M55.2,71C55.2,71,55.3,71,55.2,71l0.6-0.3c0,0,0,0,0.1,0l0,0l0.3,0.6l0,0l0,0
	l-0.6,0.2l0,0l0,0L55.2,71C55.2,71.1,55.2,71,55.2,71 M53.8,71.8l0.2,0.6l0,0l0,0l-0.6,0.2c0,0,0,0-0.1,0l0,0L53.1,72l0,0l0,0
	L53.8,71.8L53.8,71.8L53.8,71.8 M59,74.5c0-0.1-0.1-0.1-0.2-0.1c-0.1,0-0.2,0-0.2,0c-0.1,0-0.2,0-0.3-0.1c-0.6-0.4-1.2-1.1-2.1-1.9
	c-0.9-0.8-1.4-1.2-1.4-1.2c-0.1,0-0.2,0-0.3,0.1c-0.1,0.1-0.1,0.1-0.1,0.2s0.1,0.9,0.2,2.3c0,0.8,0.1,1.4,0.1,2.2
	c-0.1,0.2-0.2,0.4-0.3,0.7c0,0.1,0.1,0.2,0.2,0.2c0.2-0.1,0.4-0.2,0.7-0.3l0,0c0,0,0.1,0,0.1-0.1c0.2-0.1,0.3-0.2,0.6-0.3
	c0-0.1,0-0.1,0-0.2c0-0.1-0.1-0.1-0.3-0.1l0,0c-0.1,0-0.1,0-0.2,0c0,0-0.1,0-0.1-0.1l0,0C55,75.6,55,75.4,55,75.1
	c0-0.1,0-0.2,0.1-0.2c0.4-0.2,1-0.6,1.7-0.8c0.2,0.1,0.4,0.3,0.7,0.7c0,0.1,0,0.1,0,0.2c-0.1,0.1-0.2,0.2-0.2,0.2
	c-0.1,0.1,0,0.2,0.2,0.3c0.6-0.2,1.1-0.4,1.7-0.8C59,74.6,59,74.5,59,74.5z M54.9,74.4l-0.1-1.9c0,0,0-0.1,0.1,0l1.4,1.3L54.9,74.4z
	 M3.4,41l0.9-0.3l-0.1-0.9l0.7,0.6l0.8-0.6l-0.1,0.9L6.4,41l-0.9,0.3l0.1,0.9l-0.8-0.6l-0.8,0.6l0.1-0.9L3.4,41 M77.1,40.3l-0.7-0.6
	l0.1,0.9L75.6,41l0.9,0.3l-0.1,0.9l0.8-0.6l0.8,0.6l-0.1-0.9l0.9-0.3l-0.9-0.3l0.1-0.9L77.1,40.3"/>
</svg>
