<?xml version="1.0" encoding="utf-8"?>
<!-- Generator: Adobe Illustrator 26.2.1, SVG Export Plug-In . SVG Version: 6.00 Build 0)  -->
<svg version="1.1" id="Bdoy" xmlns="http://www.w3.org/2000/svg" xmlns:xlink="http://www.w3.org/1999/xlink" x="0px" y="0px"
	 viewBox="0 0 253 155" style="enable-background:new 0 0 253 155;" xml:space="preserve">
<style type="text/css">
	.st0{fill:#FFFFDD;}
</style>
<path class="st0" d="M245.4,138.2c-1.5-3.4-1.1-6.4-3.5-8.7c-2.4-2.3-9.5-7.3-11.7-9.5c-2.1-2.1-7.4-8-8.5-10.1
	c-1.1-2-3.2-5.9-6.8-7.9c-4.1-2.3-46.4-10.6-46.4-10.6c-10.3-1.3-18.9-11.9-19.5-21.1c-0.3-4.1,1.4-9.7,3.8-13.8
	c3.2-5.6,17.1-18.2,22-20.6c0.2-0.1,0.4-0.2,0.6-0.3c3.3,18.9,16.9,15.3,17.5,13.9c0.9-2.1-6.6-5.8-6.7-15.1
	c1.2-0.2,2.3-0.6,3.7-1.2c2.6-1.4,6.7-5.2,9.5-9.2c-6.4-0.7-12.8-0.9-19.2,0.1c5.4-1.8,13.1-2,19.7-0.9c2.5-4.3,3.7-8.7,0.3-11.3
	c-6.8-5.2-35-1.9-42-6.7c-5.4-3.6-16.1-5.9-28.8,1.3l0,0C114.3,3.2,76.8,10,69.3,8.7S52.7-0.8,40.8,0.1C28.9,0.9,24.2,12.3,24.9,13
	s8.6-8.8,17.8-5.9c9.5,3,16.4,9,23.8,10.2c8.9,1.3,36.3-4.4,50.3-1.2c-1.3,1.3-2.5,3-3.8,4.9v-0.1c-10.8-0.1-24.1-1.9-30.8-1.6
	c-9.9,0.5-20.7,5.1-30.2,5.2c-9.6,0.1-16.3-4.1-24.3-4S9.6,24.7,9.6,26.2s9.7,0.3,17.5,1.1c8.2,0.9,14,6.7,23.8,7.3
	c9.9,0.6,27.7-4.4,33-5c8.7-1.1,18.8,2.2,23.8,2.2v-0.1c-8,18.9-10.6,47.6-30.2,58.6c-11,6.6-21.5,7.6-34.9,6.7
	C31.4,96.5,2.5,80.5,4.5,54.4c-7.2,27,13.7,32.1,11.9,54.5c-0.9,11.6-22.6,23.3-14.6,41.9c-1.6-14.2,19.3-29.5,44.7-28.9
	c36.3,0.9,41.8,17.3,77.1,15.2c14.8-0.8,23.3-8.9,36.5-12.4c13.2-3.5,35.6-0.3,35.7,7.1c0.2,6.9-34.9,3.8-36.1,4.5
	c-1.3,0.7-8.7,8.5-7.4,18.7c2.1-6.5,15.6-8.9,18.2-9.4c2.8-0.4,39.2,3.9,38.4-13.9c-0.7-14.4-28.2-22.3-55-20.7c0,0,1.4-3.5,1.7-5.8
	c12.5-1.4,49.2,6.7,51.8,7.7c3.5,1.4,23.9,24.4,25,27c0.8,1.9-0.4,5.9,0.6,9.1h20C249.2,146,246.5,140.6,245.4,138.2z M202,17.4
	c-1.3,0-2-0.1-3.3-0.8C199.8,15.8,201.4,16.2,202,17.4z M140.3,11.9c1.8-1.4,3.3-3.5,5.6-4.2c3.5-0.9,7.7-0.1,9.6,3.3
	c0.6,1,0.8,2.2,0.7,3.4c-0.3-5-5.8-6.9-10-5.7c-2,0.5-3.5,2.5-5.4,3.9c-1.9,1.3-4.2,2.1-6.4,2.6C136.4,14.3,138.4,13.3,140.3,11.9z
	 M152,12c0,2.1-0.4,0.7-3,0.7s-3.3,1.5-3.3-0.7c0-2.1,0.6-0.6,3.2-0.6C151.4,11.4,152,9.7,152,12z M135.5,33.2
	c-1.2-1.2-2.5-2.3-3.7-3.8c-1.7-2.9,0-7-1.4-10.1c-2.4-4-7.7,0.6-9.6,3c-1.8,2.2-0.5,4.3,1.4,6.1c0.6,0.6,1.2,1.2,1.6,2.1
	c0.3,1,0.2,1.8,0.2,2.6c-0.4,5.1-0.1,10.5,3.2,14.5c-3.6-3.9-4.2-9.5-3.8-14.5c0-0.8,0.1-1.7-0.2-2.4c-0.3-0.7-0.9-1.3-1.5-1.8
	c-3.8-3-3.3-6.1,0.1-9.1c2.3-2.3,7.3-5,9.5-1c1.1,2.6,0.6,5.2,0.7,7.8c-0.1,2.6,2.4,4.1,4.1,5.8c3.6,3.5,7.6,7.1,11.1,10.6
	c2.2,2.5,5.1,4.9,6.2,8c-1.3-3.2-4.2-5.4-6.6-7.7C143.2,39.9,139.3,36.7,135.5,33.2z"/>
</svg>
