<?xml version="1.0" standalone="no"?>
<!DOCTYPE svg PUBLIC "-//W3C//DTD SVG 20010904//EN"
 "http://www.w3.org/TR/2001/REC-SVG-20010904/DTD/svg10.dtd">
<svg version="1.0" xmlns="http://www.w3.org/2000/svg"
 width="1012.000000pt" height="1012.000000pt" viewBox="0 0 1012.000000 1012.000000"
 preserveAspectRatio="xMidYMid meet">
<metadata>
Created by potrace 1.14, written by Peter Selinger 2001-2017
</metadata>
<g transform="translate(0.000000,1012.000000) scale(0.100000,-0.100000)"
fill="#000000" stroke="none">
<path d="M1585 8153 c-141 -19 -284 -87 -394 -188 -109 -100 -226 -299 -189
-321 6 -4 14 -2 16 4 2 7 10 12 18 12 8 0 14 5 14 10 0 6 6 10 14 10 8 0 16 4
18 9 5 14 137 100 208 136 90 45 168 66 258 70 141 6 251 -36 702 -267 47 -23
87 -46 88 -50 2 -5 10 -8 18 -8 8 0 36 -11 62 -24 47 -23 154 -61 208 -73 63
-15 391 -8 574 12 19 2 71 6 115 10 43 3 93 8 110 10 16 2 64 7 105 10 41 4
93 9 115 11 51 5 161 12 300 21 139 8 431 8 510 0 33 -4 84 -9 113 -12 59 -7
114 -25 94 -32 -6 -3 -41 -44 -77 -93 l-66 -88 -87 4 c-150 6 -305 14 -367 19
-33 2 -94 7 -135 11 -41 3 -97 7 -125 9 -27 2 -90 7 -140 11 -129 10 -440 10
-505 0 -30 -4 -66 -9 -80 -11 -14 -1 -50 -7 -80 -14 -30 -6 -64 -13 -75 -15
-53 -11 -203 -46 -216 -50 -8 -3 -25 -8 -39 -11 -14 -2 -86 -18 -160 -34 -74
-16 -153 -32 -175 -36 -22 -4 -51 -9 -65 -11 -14 -3 -90 -7 -170 -9 -131 -3
-187 1 -287 19 -18 3 -47 8 -65 11 -17 3 -35 8 -40 11 -5 3 -19 7 -31 9 -25 3
-145 33 -167 42 -8 3 -22 7 -30 8 -8 1 -37 8 -65 14 -27 7 -61 14 -75 16 -14
2 -47 8 -74 13 -47 10 -257 8 -321 -1 -69 -11 -192 -40 -222 -52 -18 -8 -33
-12 -33 -10 0 6 -145 -49 -200 -75 -54 -27 -110 -67 -110 -81 0 -25 66 -32
340 -34 346 -3 395 -8 520 -47 80 -25 164 -57 255 -98 181 -82 298 -122 425
-144 84 -16 280 -18 385 -5 158 20 195 25 235 33 14 3 42 7 63 10 20 3 94 18
165 32 70 14 138 28 152 30 14 2 36 7 50 11 32 8 31 8 125 27 125 25 128 26
160 31 17 3 55 10 85 15 30 5 127 7 215 5 152 -4 187 -7 245 -19 14 -3 45 -8
70 -11 50 -6 97 -14 120 -20 8 -2 38 -7 65 -11 28 -3 59 -8 70 -10 31 -6 107
-16 140 -18 33 -2 35 -14 10 -71 -7 -16 -18 -46 -25 -65 -7 -19 -16 -44 -20
-55 -11 -26 -91 -265 -95 -285 -4 -17 -75 -246 -134 -435 -23 -71 -43 -137
-45 -145 -35 -135 -230 -603 -258 -621 -5 -3 -9 -9 -8 -13 1 -8 -70 -138 -80
-146 -3 -3 -17 -23 -30 -44 -64 -106 -200 -255 -318 -349 -68 -54 -247 -167
-265 -167 -6 0 -18 -6 -26 -14 -19 -16 -226 -103 -226 -95 0 1 -9 -3 -21 -9
-11 -6 -65 -22 -120 -36 -111 -28 -138 -34 -254 -51 -89 -13 -211 -18 -390
-17 -181 2 -295 6 -295 12 0 1 -20 4 -44 6 -103 12 -347 108 -515 203 -73 42
-211 135 -219 148 -4 7 -13 13 -19 13 -29 0 -300 261 -378 365 -25 33 -48 62
-52 63 -5 2 -8 8 -8 13 0 4 -19 39 -43 76 -43 66 -104 188 -125 248 -14 42
-21 64 -22 70 0 3 -6 22 -14 42 -8 21 -17 54 -20 73 -3 19 -7 45 -10 57 -10
47 -19 161 -18 228 l1 70 -14 -38 c-7 -21 -16 -61 -19 -89 -4 -28 -8 -54 -11
-58 -2 -4 -7 -52 -10 -106 -4 -54 -7 -103 -7 -109 -2 -19 14 -200 17 -206 2
-3 7 -21 10 -40 4 -19 8 -38 9 -44 2 -5 6 -23 10 -40 4 -16 10 -37 13 -45 4
-8 7 -17 8 -20 23 -85 171 -386 255 -520 56 -89 165 -347 186 -440 4 -19 9
-42 11 -50 12 -54 18 -132 18 -250 0 -221 -31 -289 -292 -645 -56 -77 -106
-144 -110 -150 -21 -25 -123 -194 -140 -230 -10 -22 -21 -42 -24 -45 -3 -3 -8
-14 -11 -25 -4 -11 -18 -52 -32 -91 -33 -92 -41 -147 -40 -269 0 -100 23 -225
50 -275 13 -24 14 -23 13 20 -1 25 2 63 6 85 5 22 9 47 10 55 2 14 6 26 22 68
3 9 7 19 7 23 3 20 74 144 111 194 159 212 406 386 729 515 73 29 229 76 282
86 15 3 35 9 44 14 10 5 19 7 21 5 3 -2 22 0 44 5 22 5 65 12 95 16 30 3 58 8
61 10 25 15 408 22 554 10 104 -9 178 -16 206 -21 13 -2 47 -6 74 -10 47 -5
129 -19 185 -30 14 -3 39 -8 55 -11 17 -2 66 -14 110 -25 44 -11 87 -22 95
-23 8 -2 22 -6 30 -9 8 -3 69 -22 135 -42 100 -31 264 -91 570 -207 93 -35
130 -49 140 -52 6 -1 42 -13 80 -25 39 -12 77 -24 85 -27 149 -39 246 -63 272
-67 18 -3 40 -7 48 -10 8 -3 35 -8 60 -11 25 -3 61 -8 80 -11 107 -16 190 -20
425 -20 275 0 378 7 496 35 26 6 55 13 65 15 11 2 19 4 19 6 0 1 9 3 20 4 50
6 290 100 441 171 43 21 81 38 84 39 3 1 37 16 75 34 129 60 180 82 235 103
30 11 69 26 85 33 39 17 125 44 150 48 11 1 25 5 30 9 6 3 30 9 55 13 25 4 47
8 51 11 6 3 30 7 144 21 78 9 402 10 480 0 33 -4 80 -9 105 -12 44 -5 60 -7
110 -19 14 -3 36 -8 50 -10 32 -5 108 -26 135 -36 26 -10 59 -23 65 -25 16 -4
107 -51 117 -60 6 -5 25 -21 43 -34 58 -44 83 -121 59 -175 -24 -52 -156 -98
-349 -121 -139 -17 -425 -21 -930 -15 l-154 1 -51 -53 c-55 -59 -80 -92 -125
-169 -29 -48 -78 -155 -86 -188 -28 -114 -35 -154 -37 -226 -1 -47 0 -90 3
-95 3 -5 16 10 28 33 24 44 101 113 168 151 43 24 160 76 184 81 8 2 51 16 95
30 44 14 96 28 115 31 19 3 39 8 43 11 19 12 95 15 442 17 204 2 384 6 400 9
17 3 53 8 80 11 48 6 81 11 135 22 14 3 39 8 55 11 17 3 38 9 48 14 9 5 17 7
17 4 0 -5 91 27 160 57 130 57 229 154 271 263 41 106 28 253 -33 367 -38 72
-127 171 -202 225 -28 21 -56 43 -63 49 -6 6 -72 41 -145 77 -170 84 -277 122
-503 178 -91 23 -100 25 -146 33 -19 3 -45 8 -59 11 -14 3 -41 7 -60 10 -19 3
-46 7 -60 9 -32 6 -114 16 -165 21 -22 2 -78 7 -125 11 -47 4 -203 8 -348 8
-144 1 -262 1 -262 2 0 0 11 32 24 70 13 38 24 72 25 77 0 4 1 8 2 10 0 1 3
15 5 32 3 16 8 32 10 35 8 7 272 5 364 -3 205 -17 213 -18 290 -31 14 -2 52
-8 85 -11 82 -10 95 -12 130 -19 17 -4 48 -8 70 -11 22 -2 65 -9 95 -15 60
-12 98 -19 145 -25 17 -2 44 -7 60 -10 138 -28 238 -48 280 -56 56 -10 192
-38 305 -64 41 -9 82 -18 90 -20 63 -13 149 -39 170 -50 52 -27 264 -231 445
-429 50 -54 101 -111 115 -126 14 -15 50 -55 80 -90 30 -34 65 -73 78 -86 13
-13 21 -24 18 -24 -2 0 8 -13 22 -28 49 -51 97 -107 113 -132 9 -14 27 -36 39
-50 12 -14 36 -45 53 -70 l32 -45 0 -155 c1 -180 6 -204 41 -197 14 2 26 1 29
-3 2 -4 24 -4 47 0 24 3 57 3 75 -1 17 -3 37 -3 44 2 7 4 21 4 32 0 11 -4 39
-4 64 -1 24 4 45 4 48 1 2 -4 33 -4 70 -1 37 3 69 2 71 -2 3 -5 10 -5 16 -2 6
4 32 6 57 6 79 -3 136 -4 146 -2 6 1 24 1 41 0 30 -1 30 -1 -38 70 -67 71
-146 188 -206 307 -29 57 -40 90 -88 259 -22 79 -54 125 -134 192 -36 30 -77
65 -91 77 -14 12 -32 26 -41 31 -8 5 -32 23 -53 39 -219 173 -234 188 -367
336 -104 116 -154 182 -208 269 -28 45 -50 84 -50 87 0 9 -82 106 -119 142
-58 53 -102 78 -197 106 -49 15 -96 29 -104 32 -8 3 -22 7 -30 8 -8 2 -103 24
-210 50 -107 26 -204 48 -215 51 -11 2 -44 9 -72 15 -29 5 -55 10 -58 10 -2 0
-19 5 -37 10 -18 5 -46 12 -63 15 -26 4 -77 15 -140 30 -19 5 -36 8 -88 18
-12 2 -58 11 -102 21 -44 9 -91 19 -104 21 -12 3 -51 11 -85 19 -33 7 -77 16
-96 19 -19 3 -44 8 -55 10 -36 9 -330 67 -350 70 -121 18 -304 118 -418 231
-54 53 -162 182 -162 195 -1 3 -12 23 -26 45 -128 203 -153 448 -69 681 12 33
23 67 25 76 9 41 94 188 149 258 69 87 125 148 255 274 139 135 243 228 331
296 18 14 37 30 44 35 14 13 118 85 154 107 41 25 50 22 57 -24 13 -74 64
-220 102 -288 47 -85 152 -189 223 -222 107 -50 249 -59 327 -22 53 26 49 57
-19 142 -151 189 -190 272 -205 435 -4 48 -2 57 11 57 32 0 131 40 181 74 102
67 340 315 321 334 -4 3 -26 7 -49 8 -23 1 -80 6 -127 10 -139 12 -385 7 -513
-11 -16 -2 -26 0 -22 3 4 4 10 7 13 8 6 0 54 10 107 21 118 24 474 23 596 -2
24 -4 29 1 59 62 44 92 60 148 60 219 0 90 -50 161 -142 202 -55 24 -73 31
-98 35 -14 3 -36 8 -50 11 -64 15 -97 20 -210 32 -88 9 -281 22 -440 29 -69 3
-154 8 -190 10 -36 3 -99 7 -140 10 -41 2 -95 7 -120 10 -227 28 -285 45 -412
120 -73 42 -185 82 -286 99 -72 13 -280 14 -342 2 -139 -27 -300 -79 -400
-131 -16 -9 -32 -14 -34 -13 -2 2 -12 -5 -23 -14 -12 -11 -29 -16 -46 -13 -15
3 -38 7 -51 9 -203 35 -721 23 -1256 -29 -30 -3 -77 -8 -105 -10 -127 -12
-163 -15 -210 -20 -27 -3 -70 -8 -95 -10 -148 -12 -189 -16 -229 -20 -174 -19
-365 -24 -436 -12 -80 14 -183 51 -330 122 -76 36 -139 65 -141 65 -1 0 -32
13 -67 30 -82 38 -254 95 -332 110 -60 12 -263 20 -320 13z m4430 -293 c0 -1
10 -3 23 -6 62 -11 143 -69 176 -127 26 -44 42 -102 25 -92 -5 4 -9 13 -9 22
0 8 -10 29 -22 46 -80 117 -273 158 -410 86 -21 -11 -100 -74 -157 -125 -29
-27 -117 -71 -179 -90 -72 -21 -73 -17 -2 18 36 18 67 35 68 40 2 4 8 8 14 8
11 0 69 42 118 86 19 18 49 44 65 59 38 35 98 65 137 70 16 2 32 5 34 7 3 4
119 2 119 -2z m-71 -154 c30 -2 58 -1 61 2 6 6 19 10 50 14 16 2 20 -3 22 -27
1 -16 -1 -37 -3 -47 -5 -16 -27 -19 -40 -5 -11 10 -114 8 -153 -3 -41 -11 -61
7 -53 49 6 32 21 42 43 30 10 -5 43 -11 73 -13z m2108 -213 c27 -24 22 -33
-15 -28 -40 5 -90 29 -80 38 13 13 77 7 95 -10z m-2855 -26 c54 -31 77 -94 78
-214 0 -57 2 -103 5 -103 3 0 5 -27 6 -59 0 -49 5 -66 29 -98 16 -21 38 -46
49 -56 152 -135 639 -613 666 -652 7 -11 -7 0 -32 25 -25 25 -83 79 -129 120
-45 41 -97 89 -114 105 -17 17 -55 51 -85 76 -30 26 -69 60 -87 75 -17 16 -60
54 -94 84 -98 87 -209 201 -225 232 -13 25 -29 137 -25 178 6 64 -6 175 -22
205 -35 67 -118 84 -198 39 -93 -52 -204 -159 -215 -207 -13 -62 15 -127 86
-196 54 -52 71 -93 70 -161 -1 -19 -2 -80 -3 -135 -2 -55 0 -118 4 -140 4 -22
9 -56 12 -75 3 -19 10 -48 16 -63 13 -34 14 -44 2 -32 -5 6 -14 27 -21 49 -28
87 -37 164 -36 303 2 169 1 172 -85 255 -65 63 -80 92 -83 153 -3 75 68 174
182 254 82 58 188 74 249 38z m-177 -1098 c6 -10 7 -19 3 -19 -4 0 -13 11 -20
25 -13 29 2 24 17 -6z"/>
</g>
</svg>
